<?xml version="1.0" encoding="UTF-8" standalone="no"?>
<!-- Created with Inkscape (http://www.inkscape.org/) -->

<svg
   xmlns:dc="http://purl.org/dc/elements/1.1/"
   xmlns:cc="http://creativecommons.org/ns#"
   xmlns:rdf="http://www.w3.org/1999/02/22-rdf-syntax-ns#"
   xmlns:svg="http://www.w3.org/2000/svg"
   xmlns="http://www.w3.org/2000/svg"
   xmlns:sodipodi="http://sodipodi.sourceforge.net/DTD/sodipodi-0.dtd"
   xmlns:inkscape="http://www.inkscape.org/namespaces/inkscape"
   id="svg7319"
   version="1.1"
   inkscape:version="0.48.1 "
   width="151.25"
   height="76.25"
   xml:space="preserve"
   sodipodi:docname="Aardvark.pdf"><metadata
     id="metadata7325"><rdf:RDF><cc:Work
         rdf:about=""><dc:format>image/svg+xml</dc:format><dc:type
           rdf:resource="http://purl.org/dc/dcmitype/StillImage" /><dc:title></dc:title></cc:Work></rdf:RDF></metadata><defs
     id="defs7323" /><sodipodi:namedview
     pagecolor="#ffffff"
     bordercolor="#666666"
     borderopacity="1"
     objecttolerance="10"
     gridtolerance="10"
     guidetolerance="10"
     inkscape:pageopacity="0"
     inkscape:pageshadow="2"
     inkscape:window-width="640"
     inkscape:window-height="480"
     id="namedview7321"
     showgrid="false"
     inkscape:zoom="3.1735537"
     inkscape:cx="75.625"
     inkscape:cy="38.125"
     inkscape:window-x="0"
     inkscape:window-y="0"
     inkscape:window-maximized="0"
     inkscape:current-layer="g7327" /><g
     id="g7327"
     inkscape:groupmode="layer"
     inkscape:label="Aardvark"
     transform="matrix(1.25,0,0,-1.25,0,76.25)"><g
       id="g7329"
       transform="scale(0.24,0.24)"><path
         d="m 106.754,132.32 -3.227,-17.379 c 13.946,-8.957 25.403,-22.2301 32.082,-36.4957 6.914,-14.7656 -1.136,-31.2969 -12.382,-44.7539 -2.743,-3.2812 -5.282,-7.2109 -4.454,-12.0625 10.184,5.1133 19.211,9.6563 26.747,18.5156 0,-4.1132 -1.118,-8.7304 0.554,-12.0625 0.422,-0.8398 4.735,-0.7539 5.016,-0.0429 9.816,24.9531 1.383,54.2734 13.484,76.5199 l -57.82,27.761"
         style="fill:#854f23;fill-opacity:1;fill-rule:nonzero;stroke:none"
         id="path7331" /><path
         d="m 106.754,132.32 -3.227,-17.379 c 13.946,-8.957 25.403,-22.2301 32.082,-36.4957 6.914,-14.7656 -1.136,-31.2969 -12.382,-44.7539 -2.743,-3.2812 -5.282,-7.2109 -4.454,-12.0625 10.184,5.1133 19.211,9.6563 26.747,18.5156 0,-4.1132 -1.118,-8.7304 0.554,-12.0625 0.422,-0.8398 4.735,-0.7539 5.016,-0.0429 9.816,24.9531 1.383,54.2734 13.484,76.5199 l -57.82,27.761 z"
         style="fill:none;stroke:#ffffff;stroke-opacity:1;stroke-width:2.5;stroke-linecap:butt;stroke-linejoin:miter;stroke-miterlimit:4;stroke-dasharray:none"
         id="path7333" /><path
         d="M 161.656,107.398 C 188.563,91.5703 216.516,83.25 244.629,73.5977 241.262,53.207 222.867,41.7148 211.715,26.2813 c -3.598,-5.9141 9.781,2.1132 14.402,4.1171 -1.656,-3.6718 -8.742,-9.2578 -6.172,-10.2851 2.059,-3.8594 18.571,7.793 24.684,16.457 0,-4.8008 -8.742,-21.0859 0,-14.4023 13.836,18.6211 23.394,39.5859 33.699,60.2929 4.031,8.0977 -9.808,8.9024 -13.156,15.8086 -4.477,9.2425 -8.926,18.2225 -8.199,28.8125 l -95.317,-19.684"
         style="fill:#854f23;fill-opacity:1;fill-rule:nonzero;stroke:none"
         id="path7335" /><path
         d="M 161.656,107.398 C 188.563,91.5703 216.516,83.25 244.629,73.5977 241.262,53.207 222.867,41.7148 211.715,26.2813 c -3.598,-5.9141 9.781,2.1132 14.402,4.1171 -1.656,-3.6718 -8.742,-9.2578 -6.172,-10.2851 2.059,-3.8594 18.571,7.793 24.684,16.457 0,-4.8008 -8.742,-21.0859 0,-14.4023 13.836,18.6211 23.394,39.5859 33.699,60.2929 4.031,8.0977 -9.808,8.9024 -13.156,15.8086 -4.477,9.2425 -8.926,18.2225 -8.199,28.8125 l -95.317,-19.684 z"
         style="fill:none;stroke:#ffffff;stroke-opacity:1;stroke-width:2.5;stroke-linecap:butt;stroke-linejoin:miter;stroke-miterlimit:4;stroke-dasharray:none"
         id="path7337" /><path
         d="m 101.641,174.656 c 1.476,4.477 -1.028,8.926 -2.9144,11.774 -6.6368,10.015 -6.6758,19.254 -13.5508,29 -6.3672,9.031 -15.7735,18.867 -26.7383,22.996 -4.6289,-37.543 13.3398,-44.797 22.6289,-65.828 -13.2031,-15.926 -24.7305,-32.641 -38.1641,-48.403 -1.6875,-1.98 -3.6367,-5.656 -6.7968,-7.613 -2.3008,-1.426 -3.0391,-5.008 -4.4102,-7.754 -4.1133,2.356 -9.5078,0.711 -11.625,-0.926 -6.539,-5.066 -10.46092,-14.2067 -4.1211,-21.0465 4.6485,-5.0196 13.9258,-4.6524 19.2969,-1.6914 20.8203,11.4804 40.7617,20.2189 62.3555,29.6599 14.9684,6.547 31.8004,2.793 44.3364,-5.258 13.941,-8.957 25.398,-22.2301 32.078,-36.4996 6.914,-14.7617 -1.137,-31.2969 -12.383,-44.75 -2.738,-3.2812 -5.281,-7.2148 -4.449,-12.0625 10.179,5.1133 19.207,9.6563 26.742,18.5156 0,-4.1132 -1.113,-8.7304 0.558,-12.0664 0.418,-0.8359 4.731,-0.75 5.012,-0.039 9.817,24.9531 1.387,54.2734 13.484,76.5195 2.223,4.0824 17.309,9.1834 25.512,4.3554 26.91,-15.8281 54.86,-24.1445 82.977,-33.7968 -3.367,-20.3945 -21.762,-31.8828 -32.914,-47.3164 -3.602,-5.9141 9.777,2.1094 14.398,4.1133 -1.656,-3.668 -8.742,-9.2578 -6.168,-10.2852 2.055,-3.8555 18.567,7.793 24.684,16.457 0,-4.8007 -8.742,-21.0859 0,-14.3984 13.836,18.6211 23.394,39.5859 33.699,60.2891 4.031,8.1015 -9.813,8.9062 -13.156,15.8125 -4.477,9.2419 -8.93,18.2189 -8.199,28.8129 9.039,-20.497 23.96,-36.8207 41.593,-50.8637 C 403.641,41.9141 445.938,19.1836 494.555,18.3125 444.5,29.625 401.191,62.5508 371.738,107.172 340.523,154.461 331.301,223.43 268.063,232.953 c -47.637,7.176 -86.79,-19.226 -126.309,-46.527 -13.313,-9.196 -23.242,-13.383 -40.113,-11.77"
         style="fill:#854f23;fill-opacity:1;fill-rule:nonzero;stroke:none"
         id="path7339" /><path
         d="m 101.641,174.656 c 1.476,4.477 -1.028,8.926 -2.9144,11.774 -6.6368,10.015 -6.6758,19.254 -13.5508,29 -6.3672,9.031 -15.7735,18.867 -26.7383,22.996 -4.6289,-37.543 13.3398,-44.797 22.6289,-65.828 -13.2031,-15.926 -24.7305,-32.641 -38.1641,-48.403 -1.6875,-1.98 -3.6367,-5.656 -6.7968,-7.613 -2.3008,-1.426 -3.0391,-5.008 -4.4102,-7.754 -4.1133,2.356 -9.5078,0.711 -11.625,-0.926 -6.539,-5.066 -10.46092,-14.2067 -4.1211,-21.0465 4.6485,-5.0196 13.9258,-4.6524 19.2969,-1.6914 20.8203,11.4804 40.7617,20.2189 62.3555,29.6599 14.9684,6.547 31.8004,2.793 44.3364,-5.258 13.941,-8.957 25.398,-22.2301 32.078,-36.4996 6.914,-14.7617 -1.137,-31.2969 -12.383,-44.75 -2.738,-3.2812 -5.281,-7.2148 -4.449,-12.0625 10.179,5.1133 19.207,9.6563 26.742,18.5156 0,-4.1132 -1.113,-8.7304 0.558,-12.0664 0.418,-0.8359 4.731,-0.75 5.012,-0.039 9.817,24.9531 1.387,54.2734 13.484,76.5195 2.223,4.0824 17.309,9.1834 25.512,4.3554 26.91,-15.8281 54.86,-24.1445 82.977,-33.7968 -3.367,-20.3945 -21.762,-31.8828 -32.914,-47.3164 -3.602,-5.9141 9.777,2.1094 14.398,4.1133 -1.656,-3.668 -8.742,-9.2578 -6.168,-10.2852 2.055,-3.8555 18.567,7.793 24.684,16.457 0,-4.8007 -8.742,-21.0859 0,-14.3984 13.836,18.6211 23.394,39.5859 33.699,60.2891 4.031,8.1015 -9.813,8.9062 -13.156,15.8125 -4.477,9.2419 -8.93,18.2189 -8.199,28.8129 9.039,-20.497 23.96,-36.8207 41.593,-50.8637 C 403.641,41.9141 445.938,19.1836 494.555,18.3125 444.5,29.625 401.191,62.5508 371.738,107.172 340.523,154.461 331.301,223.43 268.063,232.953 c -47.637,7.176 -86.79,-19.226 -126.309,-46.527 -13.313,-9.196 -23.242,-13.383 -40.113,-11.77 z"
         style="fill:none;stroke:#ffffff;stroke-opacity:1;stroke-width:2.5;stroke-linecap:butt;stroke-linejoin:miter;stroke-miterlimit:4;stroke-dasharray:none"
         id="path7341" /><path
         d="m 116.555,153.055 c 11.312,8.23 7.8,26.558 4.773,42 -3.41,17.414 -6.504,35.328 -19.687,47.484 -4.8285,-29.402 -16.6957,-60.332 -2.059,-88.457"
         style="fill:#854f23;fill-opacity:1;fill-rule:nonzero;stroke:none"
         id="path7343" /><path
         d="m 116.555,153.055 c 11.312,8.23 7.8,26.558 4.773,42 -3.41,17.414 -6.504,35.328 -19.687,47.484 -4.8285,-29.402 -16.6957,-60.332 -2.059,-88.457"
         style="fill:none;stroke:#ffffff;stroke-opacity:1;stroke-width:2.5;stroke-linecap:butt;stroke-linejoin:miter;stroke-miterlimit:4;stroke-dasharray:none"
         id="path7345" /></g></g></svg>