<svg width="902" height="902" viewBox="0 0 902 902" fill="none" xmlns="http://www.w3.org/2000/svg">
<path d="M672.393 423.976C672.309 423.295 672.215 422.619 672.125 421.94C671.929 420.432 671.72 418.929 671.494 417.431C671.378 416.677 671.262 415.926 671.139 415.176C670.9 413.69 670.641 412.211 670.374 410.735C670.25 410.064 670.135 409.389 670.007 408.72C669.62 406.697 669.208 404.682 668.767 402.682C668.75 402.592 668.73 402.503 668.713 402.412C668.25 400.325 667.75 398.255 667.23 396.192C667.067 395.544 666.893 394.902 666.725 394.259C666.348 392.823 665.962 391.395 665.561 389.972C665.356 389.249 665.147 388.528 664.934 387.808C664.523 386.411 664.096 385.02 663.661 383.634C663.453 382.98 663.253 382.326 663.041 381.675C662.441 379.837 661.821 378.008 661.174 376.192C661.117 376.03 661.062 375.864 661.005 375.704C660.301 373.734 659.562 371.781 658.807 369.841C658.571 369.232 658.322 368.629 658.079 368.022C657.539 366.669 656.988 365.323 656.42 363.985C656.131 363.296 655.834 362.611 655.537 361.926C654.97 360.628 654.392 359.336 653.803 358.049C653.514 357.42 653.23 356.787 652.936 356.161C652.161 354.513 651.37 352.876 650.555 351.252C650.441 351.024 650.335 350.792 650.219 350.566C649.293 348.732 648.338 346.915 647.365 345.111C647.054 344.537 646.734 343.972 646.419 343.4C645.731 342.149 645.03 340.903 644.319 339.666C643.942 339.015 643.563 338.368 643.182 337.722C642.481 336.533 641.768 335.354 641.046 334.181C640.675 333.58 640.307 332.974 639.93 332.376C639.013 330.918 638.081 329.476 637.133 328.043C636.948 327.763 636.77 327.48 636.584 327.202C635.459 325.519 634.308 323.854 633.138 322.203C632.758 321.667 632.365 321.138 631.982 320.604C631.161 319.465 630.332 318.333 629.491 317.212C629.036 316.604 628.573 316.001 628.111 315.4C627.29 314.329 626.459 313.268 625.618 312.214C625.169 311.648 624.718 311.079 624.265 310.517C623.233 309.249 622.186 307.994 621.13 306.75C620.866 306.437 620.611 306.12 620.343 305.807C619.036 304.287 617.705 302.787 616.363 301.304C615.919 300.815 615.463 300.333 615.015 299.847C614.074 298.829 613.129 297.818 612.17 296.816C611.637 296.259 611.098 295.705 610.561 295.155C609.636 294.213 608.704 293.277 607.764 292.35C607.234 291.828 606.707 291.302 606.172 290.785C605.048 289.696 603.907 288.623 602.758 287.559C602.416 287.239 602.075 286.911 601.727 286.591C600.26 285.247 598.771 283.925 597.27 282.619C596.766 282.182 596.253 281.755 595.747 281.322C594.701 280.431 593.65 279.544 592.587 278.673C591.983 278.176 591.374 277.685 590.764 277.193C589.75 276.377 588.728 275.572 587.699 274.774C587.097 274.307 586.5 273.84 585.894 273.379C584.688 272.465 583.469 271.562 582.242 270.671C581.822 270.363 581.407 270.05 580.985 269.745C579.372 268.588 577.742 267.454 576.098 266.337C575.546 265.963 574.988 265.6 574.433 265.233C573.286 264.471 572.137 263.715 570.977 262.973C570.313 262.55 569.645 262.133 568.977 261.716C567.877 261.03 566.771 260.352 565.658 259.684C564.997 259.289 564.34 258.891 563.677 258.5C562.391 257.747 561.098 257.011 559.797 256.282C559.398 256.058 559.008 255.821 558.605 255.601L558.537 255.57C547.712 249.6 536.354 244.516 524.579 240.393L524.462 240.341C524.325 240.293 524.186 240.25 524.05 240.202C523.033 239.848 522.007 239.515 520.985 239.178C520.229 238.927 519.478 238.668 518.72 238.426C517.36 237.993 515.995 237.582 514.625 237.175C513.874 236.953 513.123 236.73 512.367 236.514C510.902 236.094 509.436 235.682 507.96 235.292C507.246 235.102 506.524 234.931 505.807 234.75C504.692 234.467 503.582 234.182 502.46 233.917C501.663 233.728 500.864 233.557 500.065 233.377C499.017 233.141 497.965 232.901 496.909 232.678C496.075 232.504 495.24 232.342 494.405 232.176C493.375 231.973 492.348 231.77 491.314 231.58C490.459 231.423 489.6 231.28 488.742 231.131C487.718 230.957 486.698 230.783 485.671 230.624C484.802 230.488 483.927 230.363 483.054 230.235C482.031 230.087 481.009 229.943 479.981 229.809C479.102 229.694 478.221 229.587 477.337 229.483C476.309 229.363 475.28 229.246 474.247 229.141C473.363 229.048 472.477 228.962 471.591 228.882C470.552 228.787 469.509 228.701 468.466 228.62C467.584 228.551 466.696 228.485 465.812 228.428C464.759 228.359 463.702 228.301 462.644 228.247C461.763 228.201 460.882 228.157 459.997 228.122C458.923 228.082 457.845 228.053 456.77 228.026C455.898 228.003 455.03 227.98 454.156 227.969C453.049 227.956 451.938 227.958 450.827 227.958C449.978 227.96 449.131 227.956 448.28 227.967C447.117 227.984 445.953 228.017 444.79 228.051C443.985 228.075 443.185 228.089 442.381 228.121C441.084 228.172 439.785 228.247 438.486 228.322C437.811 228.361 437.134 228.387 436.458 228.431C434.503 228.561 432.543 228.712 430.581 228.893C430.557 228.895 430.535 228.897 430.512 228.899L430.51 228.899L430.509 228.899C430.486 228.902 430.464 228.904 430.44 228.906C428.479 229.087 426.524 229.296 424.577 229.527C423.904 229.608 423.235 229.704 422.564 229.791C421.272 229.956 419.981 230.121 418.698 230.306C417.902 230.422 417.111 230.556 416.319 230.678C415.168 230.858 414.015 231.037 412.871 231.235C412.032 231.38 411.199 231.538 410.365 231.692C409.272 231.895 408.181 232.094 407.095 232.312C406.239 232.482 405.388 232.666 404.537 232.847C403.484 233.069 402.428 233.295 401.382 233.532C400.518 233.726 399.66 233.932 398.802 234.138C397.773 234.386 396.745 234.636 395.722 234.896C394.861 235.116 394.003 235.341 393.145 235.57C392.133 235.84 391.126 236.118 390.121 236.4C389.263 236.644 388.409 236.889 387.556 237.141C386.562 237.435 385.571 237.737 384.581 238.043C383.732 238.308 382.885 238.573 382.041 238.847C381.057 239.167 380.079 239.496 379.1 239.828C378.265 240.112 377.43 240.396 376.599 240.689C375.618 241.035 374.646 241.394 373.673 241.75C372.855 242.051 372.037 242.351 371.224 242.662C370.242 243.036 369.271 243.426 368.296 243.814C367.504 244.13 366.711 244.44 365.925 244.765C364.927 245.178 363.939 245.605 362.95 246.03C362.199 246.352 361.443 246.668 360.696 246.999C359.643 247.465 358.602 247.95 357.558 248.431C356.886 248.739 356.208 249.04 355.54 249.358C354.16 250.011 352.794 250.684 351.431 251.366C350.729 251.716 350.029 252.073 349.334 252.429C348.063 253.079 346.793 253.733 345.537 254.408C344.836 254.785 344.146 255.178 343.448 255.561C342.505 256.081 341.559 256.598 340.624 257.129C340.498 257.201 340.369 257.268 340.241 257.341L340.137 257.414C329.314 263.622 319.08 270.698 309.531 278.548L309.469 278.592C309.115 278.883 308.773 279.186 308.421 279.479C307.276 280.432 306.139 281.392 305.015 282.37C304.434 282.874 303.858 283.385 303.284 283.896C302.312 284.758 301.347 285.624 300.392 286.501C299.812 287.033 299.232 287.566 298.657 288.103C297.653 289.045 296.659 289.998 295.672 290.957C295.194 291.422 294.712 291.879 294.238 292.348C292.826 293.744 291.431 295.157 290.057 296.592C289.698 296.969 289.347 297.353 288.988 297.733C287.948 298.833 286.914 299.942 285.896 301.064C285.384 301.627 284.883 302.196 284.377 302.765C283.511 303.738 282.654 304.718 281.806 305.705C281.298 306.298 280.788 306.892 280.284 307.493C279.399 308.546 278.529 309.608 277.664 310.675C277.244 311.194 276.82 311.707 276.403 312.229C275.165 313.788 273.943 315.36 272.748 316.95C272.464 317.326 272.192 317.711 271.912 318.09C270.978 319.346 270.056 320.61 269.149 321.886C268.719 322.492 268.296 323.104 267.871 323.716C267.118 324.801 266.372 325.889 265.636 326.985C265.205 327.626 264.778 328.268 264.356 328.913C263.596 330.072 262.852 331.24 262.113 332.413C261.762 332.973 261.405 333.528 261.055 334.092C260.004 335.798 258.973 337.515 257.966 339.248C257.76 339.601 257.567 339.961 257.363 340.319C256.552 341.735 255.753 343.16 254.973 344.596C254.627 345.232 254.29 345.872 253.951 346.512C253.318 347.702 252.694 348.898 252.083 350.1C251.74 350.777 251.399 351.453 251.06 352.134C250.437 353.39 249.83 354.655 249.23 355.925C248.949 356.518 248.663 357.11 248.387 357.708C247.538 359.545 246.711 361.39 245.915 363.254C245.783 363.561 245.661 363.872 245.529 364.181C244.859 365.763 244.206 367.352 243.572 368.953C243.311 369.609 243.06 370.273 242.805 370.932C242.31 372.217 241.825 373.506 241.353 374.803C241.097 375.508 240.842 376.214 240.593 376.923C240.118 378.269 239.661 379.62 239.212 380.978C239.007 381.596 238.797 382.212 238.597 382.833C237.969 384.785 237.364 386.745 236.789 388.717C236.719 388.962 236.656 389.208 236.584 389.453C236.081 391.199 235.602 392.954 235.141 394.716C234.966 395.385 234.804 396.057 234.634 396.731C234.29 398.104 233.955 399.48 233.639 400.86C233.47 401.588 233.307 402.315 233.145 403.046C232.834 404.465 232.538 405.887 232.254 407.318C232.127 407.959 231.991 408.597 231.871 409.239C231.481 411.287 231.115 413.341 230.783 415.406C230.757 415.576 230.735 415.747 230.707 415.916C230.405 417.819 230.13 419.731 229.877 421.648C229.787 422.326 229.71 423.008 229.626 423.688C229.45 425.13 229.285 426.573 229.136 428.024C229.059 428.772 228.987 429.52 228.916 430.267C228.779 431.739 228.663 433.215 228.556 434.694C228.509 435.357 228.454 436.021 228.412 436.687C228.278 438.81 228.167 440.937 228.093 443.073C228.088 443.164 228.089 443.255 228.087 443.348C228.018 445.396 227.984 447.453 227.974 449.511C227.97 450.193 227.978 450.878 227.981 451.56C227.986 453.059 228.004 454.56 228.041 456.066C228.059 456.825 228.081 457.586 228.107 458.347C228.159 459.86 228.228 461.377 228.31 462.896C228.347 463.58 228.377 464.262 228.421 464.946C228.558 467.124 228.718 469.305 228.92 471.494C229.628 479.16 230.714 486.7 232.162 494.096C253.871 605.041 356.517 683.709 471.513 673.097L471.514 673.097L471.516 673.097C586.512 662.485 673.028 566.362 674.066 453.317C674.135 445.78 673.825 438.169 673.117 430.503C672.898 428.317 672.655 426.142 672.393 423.976Z" fill="#FF9737"/>
<path opacity="0.1" d="M261.011 500.274C259.231 492.95 257.803 485.468 256.749 477.842C256.448 475.665 256.189 473.493 255.954 471.323C255.88 470.641 255.818 469.962 255.75 469.281C255.6 467.767 255.462 466.256 255.341 464.745C255.281 463.986 255.225 463.227 255.172 462.469C255.069 460.967 254.981 459.468 254.908 457.971C254.876 457.289 254.835 456.605 254.809 455.924C254.726 453.866 254.668 451.811 254.642 449.763C254.639 449.672 254.637 449.58 254.635 449.488C254.611 447.35 254.626 445.22 254.665 443.094C254.677 442.425 254.7 441.761 254.719 441.096C254.758 439.612 254.809 438.133 254.878 436.657C254.913 435.906 254.953 435.156 254.996 434.407C255.079 432.952 255.179 431.502 255.289 430.053C255.343 429.368 255.389 428.685 255.448 428.004C255.614 426.077 255.802 424.155 256.017 422.24C256.036 422.069 256.05 421.895 256.071 421.727C256.309 419.648 256.584 417.578 256.878 415.517C256.97 414.87 257.076 414.226 257.174 413.58C257.393 412.14 257.624 410.704 257.871 409.272C257.996 408.536 258.128 407.801 258.264 407.066C258.518 405.673 258.792 404.284 259.072 402.896C259.21 402.218 259.343 401.537 259.488 400.861C259.868 399.08 260.268 397.305 260.691 395.538C260.749 395.29 260.802 395.04 260.862 394.794C261.347 392.798 261.864 390.811 262.401 388.833C262.573 388.204 262.755 387.581 262.932 386.952C263.317 385.577 263.715 384.205 264.128 382.839C264.346 382.12 264.569 381.403 264.793 380.687C265.206 379.37 265.632 378.06 266.068 376.754C266.291 376.084 266.514 375.41 266.745 374.742C267.305 373.114 267.888 371.497 268.484 369.886C268.6 369.572 268.709 369.256 268.827 368.943C269.541 367.048 270.284 365.164 271.046 363.291C271.295 362.682 271.554 362.079 271.807 361.471C272.347 360.176 272.898 358.885 273.463 357.602C273.768 356.907 274.081 356.214 274.394 355.524C274.95 354.294 275.519 353.071 276.097 351.854C276.406 351.201 276.716 350.545 277.031 349.894C277.746 348.424 278.48 346.965 279.225 345.513C279.413 345.148 279.59 344.782 279.779 344.416C280.707 342.638 281.66 340.875 282.632 339.126C282.953 338.549 283.287 337.976 283.613 337.4C284.298 336.195 284.987 334.996 285.694 333.802C286.087 333.139 286.486 332.476 286.886 331.819C287.572 330.691 288.267 329.568 288.971 328.452C289.368 327.823 289.762 327.191 290.165 326.566C291.013 325.25 291.878 323.946 292.753 322.648C293.017 322.258 293.272 321.862 293.537 321.472C294.66 319.829 295.809 318.203 296.974 316.59C297.365 316.05 297.766 315.518 298.163 314.981C298.979 313.876 299.802 312.773 300.637 311.683C301.113 311.062 301.595 310.445 302.076 309.828C302.878 308.802 303.692 307.786 304.511 306.775C304.991 306.184 305.466 305.593 305.951 305.007C306.918 303.841 307.9 302.685 308.89 301.539C309.23 301.143 309.563 300.744 309.906 300.351C311.214 298.858 312.543 297.383 313.89 295.922C314.343 295.432 314.804 294.952 315.26 294.468C316.204 293.465 317.151 292.468 318.113 291.482C318.663 290.918 319.218 290.361 319.774 289.803C320.689 288.884 321.612 287.973 322.544 287.07C323.098 286.534 323.647 285.998 324.205 285.466C325.284 284.44 326.378 283.429 327.477 282.424C327.814 282.116 328.144 281.796 328.483 281.49L328.543 281.444C337.728 273.17 347.631 265.637 358.161 258.945L358.261 258.868C358.384 258.79 358.51 258.717 358.635 258.639C359.543 258.064 360.466 257.505 361.385 256.945C362.064 256.529 362.736 256.107 363.419 255.698C364.645 254.967 365.881 254.257 367.123 253.549C367.804 253.162 368.484 252.774 369.169 252.393C370.501 251.65 371.835 250.915 373.184 250.201C373.836 249.853 374.5 249.522 375.157 249.183C376.177 248.654 377.195 248.124 378.227 247.611C378.959 247.246 379.699 246.898 380.435 246.541C381.404 246.072 382.373 245.599 383.35 245.143C384.122 244.784 384.899 244.436 385.675 244.085C386.631 243.653 387.586 243.221 388.548 242.801C389.346 242.454 390.15 242.119 390.953 241.78C391.909 241.378 392.864 240.976 393.828 240.587C394.643 240.257 395.467 239.937 396.288 239.613C397.25 239.237 398.213 238.865 399.182 238.501C400.012 238.189 400.847 237.884 401.683 237.582C402.656 237.232 403.632 236.884 404.614 236.546C405.454 236.255 406.298 235.97 407.142 235.691C408.132 235.362 409.127 235.041 410.126 234.725C410.97 234.457 411.819 234.191 412.67 233.935C413.679 233.628 414.695 233.332 415.711 233.038C416.559 232.793 417.409 232.55 418.261 232.315C419.298 232.031 420.341 231.758 421.382 231.488C422.226 231.267 423.067 231.047 423.916 230.838C424.989 230.573 426.073 230.322 427.154 230.071C427.98 229.879 428.805 229.683 429.636 229.5C430.772 229.252 431.912 229.02 433.055 228.788C433.324 228.734 433.594 228.679 433.862 228.625C433.336 228.661 432.811 228.697 432.284 228.74C430.99 228.85 429.696 228.984 428.402 229.117C427.729 229.187 427.053 229.244 426.381 229.318C424.433 229.536 422.483 229.776 420.53 230.046C420.507 230.049 420.485 230.052 420.462 230.055C420.46 230.055 420.459 230.056 420.459 230.056C420.436 230.059 420.414 230.062 420.391 230.065C418.439 230.335 416.496 230.632 414.562 230.951C413.893 231.062 413.229 231.189 412.562 231.306C411.279 231.529 409.997 231.752 408.723 231.996C407.933 232.148 407.149 232.317 406.364 232.475C405.222 232.707 404.079 232.937 402.944 233.187C402.113 233.37 401.288 233.566 400.462 233.757C399.38 234.009 398.299 234.258 397.224 234.525C396.376 234.734 395.534 234.956 394.692 235.174C393.65 235.445 392.606 235.718 391.571 236.002C390.717 236.235 389.869 236.48 389.021 236.725C388.005 237.018 386.989 237.315 385.979 237.621C385.128 237.879 384.282 238.143 383.435 238.411C382.436 238.726 381.443 239.049 380.452 239.377C379.606 239.66 378.764 239.943 377.923 240.233C376.943 240.572 375.968 240.918 374.992 241.269C374.156 241.572 373.322 241.875 372.491 242.187C371.523 242.551 370.56 242.924 369.598 243.3C368.776 243.622 367.955 243.943 367.137 244.274C366.174 244.664 365.218 245.066 364.263 245.466C363.459 245.804 362.656 246.141 361.858 246.488C360.894 246.906 359.941 247.339 358.985 247.771C358.208 248.123 357.43 248.469 356.659 248.829C355.681 249.286 354.713 249.757 353.745 250.227C353.009 250.583 352.268 250.933 351.536 251.297C350.506 251.81 349.488 252.342 348.466 252.87C347.81 253.208 347.146 253.54 346.493 253.887C345.144 254.602 343.81 255.337 342.479 256.079C341.794 256.461 341.111 256.849 340.432 257.236C339.192 257.943 337.953 258.654 336.729 259.385C336.046 259.793 335.374 260.217 334.695 260.631C333.775 261.194 332.854 261.753 331.944 262.325C331.821 262.404 331.695 262.476 331.571 262.555L331.471 262.632C320.939 269.324 311.037 276.857 301.853 285.131L301.793 285.177C301.452 285.484 301.124 285.802 300.786 286.111C299.685 287.115 298.593 288.125 297.514 289.153C296.957 289.683 296.404 290.22 295.854 290.756C294.922 291.661 293.997 292.57 293.083 293.489C292.528 294.047 291.972 294.605 291.423 295.168C290.462 296.154 289.512 297.152 288.57 298.154C288.113 298.64 287.653 299.118 287.2 299.608C285.853 301.068 284.523 302.542 283.216 304.038C282.874 304.43 282.541 304.83 282.2 305.225C281.21 306.372 280.227 307.526 279.261 308.693C278.776 309.279 278.3 309.87 277.821 310.462C277 311.473 276.188 312.49 275.386 313.514C274.905 314.13 274.422 314.747 273.947 315.369C273.11 316.461 272.289 317.562 271.473 318.667C271.077 319.204 270.676 319.736 270.284 320.276C269.117 321.89 267.968 323.516 266.846 325.158C266.58 325.547 266.325 325.943 266.062 326.335C265.186 327.632 264.322 328.936 263.474 330.252C263.072 330.877 262.678 331.507 262.28 332.138C261.577 333.256 260.882 334.377 260.195 335.505C259.794 336.165 259.397 336.825 259.004 337.488C258.298 338.681 257.607 339.882 256.922 341.087C256.596 341.662 256.265 342.233 255.941 342.813C254.969 344.564 254.017 346.326 253.089 348.103C252.899 348.465 252.723 348.833 252.535 349.2C251.789 350.651 251.056 352.111 250.341 353.58C250.024 354.232 249.717 354.886 249.406 355.541C248.829 356.758 248.259 357.982 247.704 359.21C247.391 359.902 247.081 360.593 246.773 361.288C246.207 362.571 245.659 363.862 245.117 365.158C244.861 365.764 244.604 366.367 244.356 366.977C243.591 368.851 242.847 370.732 242.136 372.63C242.019 372.942 241.911 373.259 241.794 373.573C241.196 375.184 240.615 376.801 240.054 378.429C239.823 379.096 239.603 379.77 239.378 380.44C238.942 381.746 238.516 383.056 238.103 384.374C237.878 385.089 237.656 385.806 237.44 386.525C237.026 387.892 236.63 389.262 236.243 390.639C236.066 391.266 235.884 391.89 235.713 392.52C235.174 394.498 234.658 396.484 234.173 398.48C234.115 398.728 234.062 398.977 234.002 399.225C233.579 400.991 233.179 402.766 232.799 404.547C232.654 405.223 232.522 405.903 232.383 406.583C232.101 407.97 231.83 409.36 231.576 410.753C231.441 411.488 231.309 412.222 231.182 412.959C230.935 414.39 230.704 415.825 230.485 417.266C230.387 417.913 230.28 418.557 230.19 419.203C229.893 421.266 229.62 423.336 229.382 425.413C229.363 425.584 229.349 425.757 229.328 425.927C229.113 427.841 228.925 429.763 228.759 431.69C228.7 432.372 228.654 433.056 228.6 433.739C228.49 435.188 228.39 436.637 228.308 438.093C228.265 438.844 228.226 439.594 228.189 440.343C228.119 441.82 228.07 443.3 228.03 444.782C228.013 445.447 227.988 446.113 227.976 446.78C227.939 448.907 227.924 451.036 227.947 453.174C227.947 453.265 227.951 453.356 227.953 453.449C227.977 455.498 228.036 457.554 228.12 459.611C228.146 460.292 228.185 460.975 228.22 461.657C228.293 463.155 228.378 464.652 228.483 466.155C228.536 466.913 228.592 467.672 228.653 468.432C228.773 469.94 228.911 471.453 229.062 472.967C229.129 473.648 229.19 474.328 229.265 475.01C229.5 477.179 229.759 479.35 230.06 481.528C231.114 489.154 232.541 496.637 234.322 503.96C261.032 613.809 367.134 687.748 481.531 671.941C481.533 671.941 481.533 671.941 481.533 671.941C486.015 671.321 490.443 670.558 494.821 669.685C385.632 678.195 286.673 605.819 261.011 500.274Z" fill="#231F20"/>
<g opacity="0.55">
<path d="M578.27 543.844C575.271 544.258 572.112 543.602 569.419 541.759C563.659 537.823 562.18 529.964 566.116 524.204C567.078 522.796 568.013 521.369 568.922 519.925C572.637 514.02 580.434 512.242 586.339 515.957C592.245 519.672 594.021 527.468 590.307 533.374C589.23 535.089 588.108 536.8 586.974 538.458C584.88 541.522 581.677 543.373 578.27 543.844Z" fill="#F5F5F5"/>
</g>
<g opacity="0.55">
<path d="M595.344 505.526C593.631 505.762 591.84 505.649 590.071 505.13C583.377 503.168 579.539 496.151 581.502 489.457C586.916 470.982 588.313 451.86 585.655 432.619C577.937 376.767 537.546 332.125 482.756 318.886C475.975 317.247 471.805 310.423 473.444 303.642C475.083 296.862 481.908 292.692 488.688 294.331C519.857 301.86 547.854 318.357 569.649 342.035C591.966 366.277 606.155 396.406 610.681 429.161C613.832 451.963 612.171 474.638 605.746 496.561C604.302 501.485 600.12 504.866 595.344 505.526Z" fill="#F5F5F5"/>
</g>
<path d="M412.006 168.792C405.095 169.747 398.719 164.918 397.765 158.009L385.466 69.006C384.511 62.0951 389.34 55.7195 396.25 54.7647C403.162 53.8096 409.536 58.6388 410.491 65.5481L422.789 154.549C423.744 161.46 418.917 167.837 412.006 168.792Z" fill="#FF9737"/>
<path d="M505.753 847.235C498.842 848.19 492.467 843.361 491.512 836.451L479.213 747.447C478.258 740.536 483.087 734.161 489.997 733.206C496.909 732.251 503.283 737.08 504.238 743.989L516.537 832.993C517.491 839.903 512.664 846.28 505.753 847.235Z" fill="#FF9737"/>
<path d="M215.533 283.909C212.332 284.352 208.959 283.573 206.179 281.468L134.55 227.231C128.988 223.02 127.893 215.097 132.105 209.537C136.316 203.975 144.238 202.881 149.799 207.092L221.428 261.327C226.99 265.539 228.085 273.462 223.874 279.023C221.769 281.802 218.735 283.467 215.533 283.909Z" fill="#FF9737"/>
<path d="M761.555 697.352C758.354 697.795 754.981 697.016 752.199 694.91L680.571 640.672C675.008 636.461 673.914 628.54 678.126 622.977C682.336 617.415 690.261 616.32 695.819 620.532L767.45 674.769C773.012 678.98 774.106 686.901 769.895 692.465C767.79 695.243 764.757 696.91 761.555 697.352Z" fill="#FF9737"/>
<path d="M158.009 504.237L69.0062 516.535C62.0969 517.49 55.7199 512.663 54.7649 505.752C53.81 498.841 58.639 492.465 65.5483 491.51L154.55 479.212C161.46 478.257 167.836 483.086 168.791 489.996C169.747 496.906 164.918 503.282 158.009 504.237Z" fill="#FF9737"/>
<path d="M836.452 410.489L747.447 422.788C740.536 423.743 734.161 418.914 733.206 412.005C732.251 405.094 737.08 398.718 743.989 397.763L832.994 385.465C839.905 384.51 846.28 389.339 847.235 396.248C848.19 403.159 843.361 409.535 836.452 410.489Z" fill="#FF9737"/>
<path d="M218.889 772.338C215.685 772.781 212.315 772.002 209.535 769.895C203.974 765.684 202.879 757.761 207.09 752.199L261.329 680.571C265.54 675.01 273.463 673.915 279.025 678.126C284.586 682.337 285.681 690.26 281.47 695.82L227.231 767.45C225.125 770.229 222.09 771.896 218.889 772.338Z" fill="#FF9737"/>
<path d="M632.332 226.316C629.128 226.759 625.758 225.98 622.978 223.873C617.415 219.662 616.32 211.739 620.533 206.178L674.769 134.55C678.981 128.988 686.903 127.893 692.465 132.105C698.026 136.316 699.121 144.239 694.91 149.799L640.671 221.427C638.568 224.208 635.534 225.874 632.332 226.316Z" fill="#FF9737"/>
<path d="M270.113 228.642C265.788 229.239 261.273 227.576 258.401 223.883L203.248 152.952C198.966 147.446 199.958 139.509 205.466 135.227C210.974 130.945 218.909 131.937 223.191 137.445L278.344 208.376C282.626 213.882 281.634 221.819 276.126 226.101C274.313 227.508 272.235 228.349 270.113 228.642Z" fill="#FF9737"/>
<path d="M690.519 769.317C686.195 769.915 681.681 768.251 678.808 764.558L623.656 693.629C619.375 688.122 620.366 680.185 625.874 675.904C631.382 671.622 639.319 672.613 643.6 678.122L698.751 749.051C703.032 754.557 702.041 762.494 696.533 766.776C694.718 768.185 692.641 769.024 690.519 769.317Z" fill="#FF9737"/>
<path d="M157.521 426.573C156.448 426.721 155.339 426.734 154.214 426.591L65.0615 415.433C58.1387 414.566 53.2297 408.252 54.0966 401.329C54.9634 394.406 61.2772 389.496 68.2001 390.363L157.353 401.522C164.276 402.389 169.184 408.703 168.318 415.626C167.59 421.424 163.045 425.809 157.521 426.573Z" fill="#FF9737"/>
<path d="M837.107 511.612C836.035 511.761 834.926 511.773 833.801 511.631L744.648 500.473C737.725 499.607 732.816 493.292 733.683 486.369C734.547 479.447 740.862 474.536 747.787 475.404L836.939 486.562C843.862 487.429 848.771 493.743 847.904 500.666C847.179 506.463 842.631 510.849 837.107 511.612Z" fill="#FF9737"/>
<path d="M146.938 701.291C142.614 701.889 138.098 700.224 135.227 696.531C130.945 691.024 131.937 683.087 137.445 678.806L208.376 623.656C213.882 619.374 221.819 620.366 226.101 625.874C230.383 631.38 229.391 639.317 223.883 643.599L152.952 698.75C151.139 700.16 149.06 700.998 146.938 701.291Z" fill="#FF9737"/>
<path d="M687.614 280.885C683.289 281.482 678.774 279.819 675.902 276.124C671.62 270.618 672.612 262.681 678.12 258.399L749.048 203.248C754.554 198.966 762.493 199.958 766.773 205.466C771.054 210.972 770.063 218.909 764.555 223.191L693.627 278.342C691.815 279.752 689.737 280.591 687.614 280.885Z" fill="#FF9737"/>
<path d="M404.639 847.884C403.566 848.033 402.458 848.046 401.333 847.904C394.41 847.039 389.501 840.724 390.368 833.801L401.526 744.648C402.392 737.725 408.707 732.817 415.629 733.683C422.552 734.55 427.461 740.864 426.594 747.787L415.436 836.938C414.709 842.734 410.163 847.121 404.639 847.884Z" fill="#FF9737"/>
<path d="M489.683 168.297C488.611 168.445 487.504 168.458 486.38 168.317C479.456 167.45 474.547 161.136 475.412 154.213L486.569 65.0613C487.432 58.1389 493.748 53.2282 500.672 54.0963C507.593 54.9603 512.504 61.2757 511.637 68.197L500.483 157.349C499.753 163.147 495.206 167.534 489.683 168.297Z" fill="#FF9737"/>
</svg>
