<?xml version="1.0" encoding="UTF-8" standalone="no"?>
<svg
   xmlns:dc="http://purl.org/dc/elements/1.1/"
   xmlns:cc="http://creativecommons.org/ns#"
   xmlns:rdf="http://www.w3.org/1999/02/22-rdf-syntax-ns#"
   xmlns:svg="http://www.w3.org/2000/svg"
   xmlns="http://www.w3.org/2000/svg"
   xmlns:sodipodi="http://sodipodi.sourceforge.net/DTD/sodipodi-0.dtd"
   xmlns:inkscape="http://www.inkscape.org/namespaces/inkscape"
   width="55.5556in"
   height="32.7778in"
   viewBox="0 0 5000 2950"
   version="1.1"
   id="svg58"
   sodipodi:docname="Ante2.svg"
   inkscape:version="0.92.2 5c3e80d, 2017-08-06">
  <metadata
     id="metadata64">
    <rdf:RDF>
      <cc:Work
         rdf:about="">
        <dc:format>image/svg+xml</dc:format>
        <dc:type
           rdf:resource="http://purl.org/dc/dcmitype/StillImage" />
      </cc:Work>
    </rdf:RDF>
  </metadata>
  <defs
     id="defs62" />
  <sodipodi:namedview
     pagecolor="#ffffff"
     bordercolor="#666666"
     borderopacity="1"
     objecttolerance="10"
     gridtolerance="10"
     guidetolerance="10"
     inkscape:pageopacity="0"
     inkscape:pageshadow="2"
     inkscape:window-width="3840"
     inkscape:window-height="2126"
     id="namedview60"
     showgrid="false"
     inkscape:zoom="0.84628036"
     inkscape:cx="2255.4643"
     inkscape:cy="1606.6781"
     inkscape:window-x="0"
     inkscape:window-y="34"
     inkscape:window-maximized="0"
     inkscape:current-layer="svg58" />
  <path
     id="Selection"
     fill="none"
     stroke="black"
     stroke-width="1"
     d="M 237.58,2380.00            C 237.58,2380.00 287.58,2200.00 287.58,2200.00              287.58,2200.00 357.58,1948.00 357.58,1948.00              357.58,1948.00 393.42,1819.00 393.42,1819.00              393.42,1819.00 447.28,1639.00 447.28,1639.00              447.28,1639.00 542.72,1319.00 542.72,1319.00              542.72,1319.00 603.58,1114.00 603.58,1114.00              603.58,1114.00 673.58,869.00 673.58,869.00              673.58,869.00 697.58,785.00 697.58,785.00              697.58,785.00 710.00,742.00 710.00,742.00              710.00,742.00 736.03,659.00 736.03,659.00              736.03,659.00 791.97,482.00 791.97,482.00              791.97,482.00 832.33,354.00 832.33,354.00              845.64,313.18 852.07,265.72 893.00,242.43              899.97,238.46 909.20,235.32 917.00,233.37              925.44,231.26 940.37,229.08 949.00,229.00              949.00,229.00 960.28,266.00 960.28,266.00              960.28,266.00 987.28,354.00 987.28,354.00              987.28,354.00 1070.97,627.00 1070.97,627.00              1070.97,627.00 1085.72,677.00 1085.72,677.00              1085.72,677.00 1128.72,822.00 1128.72,822.00              1128.72,822.00 1262.72,1274.00 1262.72,1274.00              1291.98,1371.53 1318.14,1469.90 1345.42,1568.00              1345.42,1568.00 1373.88,1671.00 1373.88,1671.00              1373.88,1671.00 1386.00,1717.00 1386.00,1717.00              1386.00,1717.00 3357.00,1717.00 3357.00,1717.00              3357.00,1717.00 3962.00,1717.00 3962.00,1717.00              3962.00,1717.00 4148.00,1717.00 4148.00,1717.00              4148.00,1717.00 4205.00,1717.00 4205.00,1717.00              4205.00,1717.00 4234.00,1716.00 4234.00,1716.00              4227.39,1712.76 4217.38,1704.98 4211.00,1700.42              4211.00,1700.42 4168.00,1668.87 4168.00,1668.87              4168.00,1668.87 4041.00,1570.60 4041.00,1570.60              4041.00,1570.60 3988.00,1528.60 3988.00,1528.60              3988.00,1528.60 3973.00,1516.65 3973.00,1516.65              3971.06,1515.15 3965.84,1511.36 3964.65,1509.56              3962.60,1506.46 3964.96,1503.64 3966.67,1501.00              3966.67,1501.00 3980.00,1481.00 3980.00,1481.00              3980.00,1481.00 4028.33,1409.00 4028.33,1409.00              4028.33,1409.00 4039.67,1392.00 4039.67,1392.00              4041.21,1389.77 4042.93,1386.79 4046.04,1386.96              4048.61,1387.10 4057.35,1393.01 4060.00,1394.68              4060.00,1394.68 4093.00,1415.58 4093.00,1415.58              4093.00,1415.58 4219.00,1494.95 4219.00,1494.95              4219.00,1494.95 4322.00,1559.95 4322.00,1559.95              4322.00,1559.95 4375.00,1593.34 4375.00,1593.34              4375.00,1593.34 4428.00,1629.66 4428.00,1629.66              4428.00,1629.66 4527.00,1697.03 4527.00,1697.03              4527.00,1697.03 4634.00,1770.03 4634.00,1770.03              4634.00,1770.03 4693.00,1810.00 4693.00,1810.00              4693.00,1810.00 4693.00,1812.00 4693.00,1812.00              4693.00,1812.00 4618.00,1860.69 4618.00,1860.69              4618.00,1860.69 4448.00,1971.34 4448.00,1971.34              4448.00,1971.34 4342.00,2040.34 4342.00,2040.34              4342.00,2040.34 4262.00,2092.58 4262.00,2092.58              4262.00,2092.58 4227.00,2113.01 4227.00,2113.01              4227.00,2113.01 4107.00,2182.60 4107.00,2182.60              4107.00,2182.60 4065.00,2207.00 4065.00,2207.00              4065.00,2207.00 4041.00,2220.00 4041.00,2220.00              4021.56,2190.83 4004.51,2160.42 3987.15,2130.00              3987.15,2130.00 3970.85,2101.00 3970.85,2101.00              3967.78,2095.63 3962.79,2087.66 3961.00,2082.00              3961.00,2082.00 3998.00,2058.67 3998.00,2058.67              3998.00,2058.67 4054.00,2022.42 4054.00,2022.42              4054.00,2022.42 4125.00,1978.31 4125.00,1978.31              4170.55,1948.97 4220.14,1914.24 4262.00,1880.00              4262.00,1880.00 1440.00,1880.00 1440.00,1880.00              1440.00,1880.00 1451.42,1917.00 1451.42,1917.00              1451.42,1917.00 1470.72,1982.00 1470.72,1982.00              1470.72,1982.00 1534.72,2197.00 1534.72,2197.00              1534.72,2197.00 1681.28,2689.00 1681.28,2689.00              1681.28,2689.00 1731.28,2857.00 1731.28,2857.00              1731.28,2857.00 1753.00,2930.00 1753.00,2930.00              1753.00,2930.00 1583.00,2930.00 1583.00,2930.00              1580.96,2930.00 1577.37,2930.26 1575.70,2929.01              1573.71,2927.52 1571.85,2920.56 1571.00,2918.00              1571.00,2918.00 1561.58,2891.00 1561.58,2891.00              1561.58,2891.00 1514.81,2763.00 1514.81,2763.00              1514.81,2763.00 1499.95,2722.00 1499.95,2722.00              1499.95,2722.00 1486.67,2685.00 1486.67,2685.00              1486.67,2685.00 1473.28,2641.00 1473.28,2641.00              1473.28,2641.00 1439.97,2532.00 1439.97,2532.00              1439.97,2532.00 1381.28,2340.00 1381.28,2340.00              1381.28,2340.00 1338.72,2201.00 1338.72,2201.00              1338.72,2201.00 1293.28,2051.00 1293.28,2051.00              1293.28,2051.00 1265.87,1956.00 1265.87,1956.00              1265.87,1956.00 1253.08,1899.00 1253.08,1899.00              1252.44,1895.19 1251.48,1883.03 1248.57,1881.02              1246.76,1879.78 1243.16,1880.00 1241.00,1880.00              1241.00,1880.00 595.00,1880.00 595.00,1880.00              584.26,1880.02 586.42,1881.20 581.19,1895.00              581.19,1895.00 566.67,1937.00 566.67,1937.00              566.67,1937.00 523.35,2062.00 523.35,2062.00              523.35,2062.00 504.98,2124.00 504.98,2124.00              504.98,2124.00 423.72,2397.00 423.72,2397.00              423.72,2397.00 405.02,2460.00 405.02,2460.00              403.95,2463.50 400.59,2477.28 398.30,2479.01              396.64,2480.26 393.03,2480.00 391.00,2480.00              391.00,2480.00 210.00,2480.00 210.00,2480.00              210.00,2480.00 237.58,2380.00 237.58,2380.00 Z            M 2513.00,642.00            C 2513.00,642.00 2513.00,867.00 2513.00,867.00              2513.00,867.00 2638.00,867.00 2638.00,867.00              2638.00,867.00 2638.00,968.00 2638.00,968.00              2638.00,968.00 2513.00,968.00 2513.00,968.00              2513.00,968.00 2513.00,1318.00 2513.00,1318.00              2513.00,1318.00 2513.00,1493.00 2513.00,1493.00              2513.00,1493.00 2513.91,1503.00 2513.91,1503.00              2515.33,1523.61 2517.88,1550.94 2534.04,1565.82              2545.38,1576.25 2564.97,1579.98 2580.00,1580.00              2580.00,1580.00 2617.00,1580.00 2617.00,1580.00              2617.00,1580.00 2638.00,1579.00 2638.00,1579.00              2638.00,1579.00 2638.00,1692.00 2638.00,1692.00              2574.42,1700.40 2497.71,1716.08 2440.00,1679.31              2428.81,1672.18 2420.13,1664.72 2411.09,1655.00              2387.19,1629.31 2378.30,1597.15 2375.91,1563.00              2375.91,1563.00 2375.00,1551.00 2375.00,1551.00              2375.00,1551.00 2375.00,1523.00 2375.00,1523.00              2375.00,1523.00 2374.00,1508.00 2374.00,1508.00              2374.00,1508.00 2374.00,1328.00 2374.00,1328.00              2374.00,1328.00 2374.00,968.00 2374.00,968.00              2374.00,968.00 2274.00,968.00 2274.00,968.00              2274.00,968.00 2274.00,867.00 2274.00,867.00              2274.00,867.00 2374.00,867.00 2374.00,867.00              2374.00,867.00 2374.00,642.00 2374.00,642.00              2374.00,642.00 2513.00,642.00 2513.00,642.00 Z            M 906.00,730.00            C 898.00,730.05 898.72,730.35 895.12,744.00              895.12,744.00 884.15,784.00 884.15,784.00              884.15,784.00 835.58,962.00 835.58,962.00              835.58,962.00 795.58,1108.00 795.58,1108.00              795.58,1108.00 745.72,1276.00 745.72,1276.00              745.72,1276.00 684.72,1482.00 684.72,1482.00              684.72,1482.00 636.72,1644.00 636.72,1644.00              636.72,1644.00 615.00,1717.00 615.00,1717.00              615.00,1717.00 1197.00,1717.00 1197.00,1717.00              1197.00,1717.00 1188.71,1686.00 1188.71,1686.00              1188.71,1686.00 1175.42,1639.00 1175.42,1639.00              1175.42,1639.00 1131.42,1483.00 1131.42,1483.00              1084.02,1312.55 1034.17,1142.81 984.58,973.00              984.58,973.00 935.58,805.00 935.58,805.00              935.58,805.00 914.00,730.00 914.00,730.00              914.00,730.00 906.00,730.00 906.00,730.00 Z            M 1643.96,962.00            C 1643.96,962.00 1652.04,953.00 1652.04,953.00              1652.04,953.00 1681.00,924.91 1681.00,924.91              1710.45,897.52 1738.36,877.10 1776.00,862.20              1795.03,854.67 1815.82,848.97 1836.00,845.59              1866.17,840.52 1879.11,840.95 1909.00,841.00              1920.36,841.02 1938.53,843.66 1950.00,845.59              2012.76,856.12 2074.36,888.58 2110.66,942.00              2118.94,954.19 2126.07,967.31 2131.55,981.00              2142.98,1009.58 2146.99,1039.53 2149.09,1070.00              2149.09,1070.00 2150.00,1083.00 2150.00,1083.00              2150.00,1083.00 2151.00,1100.00 2151.00,1100.00              2151.00,1100.00 2151.00,1228.00 2151.00,1228.00              2151.00,1228.00 2150.00,1243.00 2150.00,1243.00              2150.00,1243.00 2150.00,1668.00 2150.00,1668.00              2150.00,1668.00 2012.00,1668.00 2012.00,1668.00              2012.00,1668.00 2012.00,1122.00 2012.00,1122.00              2012.00,1122.00 2010.96,1110.00 2010.96,1110.00              2010.96,1110.00 2010.96,1101.00 2010.96,1101.00              2009.40,1086.02 2006.30,1068.00 2000.80,1054.00              1993.68,1035.90 1982.69,1019.76 1969.00,1006.00              1956.87,993.81 1943.34,983.17 1928.00,975.26              1838.84,929.27 1729.59,983.01 1682.01,1064.00              1655.49,1109.15 1645.81,1161.56 1640.83,1213.00              1640.83,1213.00 1639.00,1240.00 1639.00,1240.00              1639.00,1240.00 1638.00,1257.00 1638.00,1257.00              1638.00,1257.00 1638.00,1320.00 1638.00,1320.00              1638.00,1320.00 1638.00,1668.00 1638.00,1668.00              1638.00,1668.00 1499.00,1668.00 1499.00,1668.00              1499.00,1668.00 1499.00,867.00 1499.00,867.00              1499.00,867.00 1625.00,867.00 1625.00,867.00              1625.00,867.00 1625.00,944.00 1625.00,944.00              1625.00,952.40 1624.09,975.28 1626.00,982.00              1629.93,974.67 1638.12,968.11 1643.96,962.00 Z            M 3408.42,1474.00            C 3387.94,1528.29 3361.33,1579.84 3317.00,1618.71              3281.00,1650.28 3236.87,1672.78 3191.00,1686.00              3085.34,1716.46 2959.45,1705.48 2868.00,1641.28              2850.60,1629.06 2833.03,1612.78 2818.83,1597.00              2765.12,1537.32 2735.31,1470.30 2720.20,1392.00              2715.97,1370.10 2713.44,1348.21 2711.91,1326.00              2711.91,1326.00 2710.96,1316.00 2710.96,1316.00              2710.96,1316.00 2710.96,1304.00 2710.96,1304.00              2710.96,1304.00 2710.00,1292.00 2710.00,1292.00              2710.00,1292.00 2711.00,1249.00 2711.00,1249.00              2711.00,1249.00 2711.91,1239.00 2711.91,1239.00              2711.91,1239.00 2719.58,1170.00 2719.58,1170.00              2731.96,1090.22 2759.26,1015.71 2814.17,955.00              2842.14,924.06 2876.39,897.47 2914.00,879.26              2954.35,859.72 2995.52,848.59 3040.00,843.84              3040.00,843.84 3063.00,842.00 3063.00,842.00              3063.00,842.00 3101.00,842.00 3101.00,842.00              3101.00,842.00 3111.00,842.91 3111.00,842.91              3130.28,844.26 3149.14,847.08 3168.00,851.35              3246.05,869.02 3319.99,912.39 3365.98,979.00              3406.14,1037.18 3423.73,1106.53 3431.16,1176.00              3431.16,1176.00 3435.04,1224.00 3435.04,1224.00              3435.04,1224.00 3436.00,1237.00 3436.00,1237.00              3436.00,1237.00 3437.00,1256.00 3437.00,1256.00              3437.00,1256.00 3437.00,1272.00 3437.00,1272.00              3437.00,1272.00 3438.00,1285.00 3438.00,1285.00              3438.00,1285.00 3438.00,1305.00 3438.00,1305.00              3438.00,1305.00 2850.00,1305.00 2850.00,1305.00              2850.00,1305.00 2851.00,1323.00 2851.00,1323.00              2851.00,1323.00 2851.00,1348.00 2851.00,1348.00              2851.04,1374.66 2859.22,1405.85 2870.31,1430.00              2881.75,1454.92 2894.55,1472.69 2912.83,1493.00              2944.86,1528.59 2983.78,1556.85 3030.00,1570.72              3043.96,1574.91 3062.45,1578.98 3077.00,1579.00              3105.52,1579.04 3119.61,1578.06 3147.00,1568.31              3162.60,1562.75 3176.50,1555.13 3190.00,1545.58              3223.50,1521.87 3252.47,1491.27 3276.29,1458.00              3276.29,1458.00 3295.37,1432.00 3295.37,1432.00              3297.22,1429.53 3302.20,1422.37 3304.46,1420.99              3306.75,1419.61 3311.31,1420.03 3314.00,1420.00              3314.00,1420.00 3327.00,1419.00 3327.00,1419.00              3327.00,1419.00 3340.00,1419.00 3340.00,1419.00              3340.00,1419.00 3355.00,1418.00 3355.00,1418.00              3355.00,1418.00 3373.00,1418.00 3373.00,1418.00              3373.00,1418.00 3389.00,1417.00 3389.00,1417.00              3389.00,1417.00 3428.00,1417.00 3428.00,1417.00              3428.00,1417.00 3408.42,1474.00 3408.42,1474.00 Z            M 3293.57,1162.00            C 3284.21,1106.21 3264.57,1051.82 3220.00,1014.44              3161.31,965.21 3073.80,954.43 3002.00,976.98              2974.24,985.69 2946.40,1000.16 2925.00,1020.09              2889.56,1053.10 2869.87,1099.53 2859.35,1146.00              2855.74,1161.93 2851.35,1187.92 2851.00,1204.00              2851.00,1204.00 3299.00,1204.00 3299.00,1204.00              3299.00,1204.00 3293.57,1162.00 3293.57,1162.00 Z" />
  <path
     style="fill:#ffffff;stroke-width:1.18164146"
     d="m 1680.8511,3122.9487 c -0.3911,-0.6329 -3.8256,-10.0713 -7.632,-20.9742 -3.8064,-10.9028 -22.3484,-62.0965 -41.2043,-113.7638 -18.8559,-51.6673 -37.506,-103.2459 -41.4447,-114.6192 -3.9386,-11.3733 -27.4263,-87.1461 -52.195,-168.384 -24.7686,-81.2378 -59.0342,-193.4347 -76.1458,-249.3263 -48.4877,-158.3754 -80.6517,-264.9565 -96.2809,-319.0432 -12.8886,-44.6027 -25.7317,-96.5997 -29.5253,-119.5375 -0.7698,-4.6547 -2.1143,-9.4403 -2.9876,-10.6347 -1.534,-2.0979 -13.4521,-2.1834 -351.15369,-2.5173 -242.83488,-0.2401 -350.88641,0.035 -353.8912,0.9019 -3.61125,1.0417 -4.61355,2.0743 -6.07025,6.2539 -57.56431,165.1637 -65.14004,188.1028 -92.57995,280.3287 -15.27584,51.3423 -44.77745,150.5116 -65.55915,220.3762 -20.78169,69.8645 -38.56703,128.2228 -39.52298,129.6851 l -1.73807,2.6587 h -98.63982 c -54.25191,0 -98.63983,-0.2171 -98.63983,-0.4823 0,-0.8255 18.58934,-67.9428 107.70415,-388.8686 55.12481,-198.5188 95.67853,-342.1427 112.27291,-397.6223 153.85706,-514.3871 196.01401,-657.1986 256.37711,-868.50654 30.54007,-106.90902 61.12523,-212.19327 67.96701,-233.96502 6.84178,-21.77174 36.27378,-115.09188 65.40443,-207.37808 29.13066,-92.2862 56.21174,-178.69374 60.1802,-192.01675 9.15049,-30.72027 13.12156,-41.55352 20.35786,-55.53715 13.92304,-26.90524 33.14027,-42.26344 62.23467,-49.73722 11.75951,-3.02079 31.834,-5.41693 33.1029,-3.95124 0.5263,0.60798 2.8829,7.48628 5.2368,15.28511 2.3539,7.79884 30.9305,101.11898 63.5036,207.37809 32.573,106.25911 80.4221,264.71724 106.3312,352.12917 25.9091,87.41193 75.0982,253.31443 109.3091,368.67213 34.2109,115.3578 68.3249,231.2768 75.8089,257.5979 16.6648,58.6096 91.1496,328.2726 99.7926,361.2869 l 6.2643,23.9282 1508.4161,-0.012 c 829.6289,0 1513.6005,-0.3494 1519.9371,-0.769 6.3365,-0.4196 11.5059,-1.0816 11.4874,-1.4709 -0.019,-0.3895 -2.81,-2.3932 -6.2036,-4.4528 -24.5509,-14.9003 -279.5469,-211.726 -281.7551,-217.4804 -0.6611,-1.7227 79.2101,-122.2333 83.7147,-126.3099 1.1709,-1.0597 2.8955,-1.6325 3.8327,-1.2729 1.5595,0.5985 66.138,41.2213 273.7067,172.1744 41.9187,26.4461 96.4219,61.8955 121.1182,78.7766 50.281,34.3692 255.5384,174.1574 278.0335,189.3515 7.9902,5.3969 14.371,10.2666 14.1797,10.8217 -0.1913,0.5551 -25.6053,17.4147 -56.4757,37.4659 -68.5835,44.5469 -349.4007,227.3893 -378.461,246.4191 -11.558,7.5687 -28.5736,18.2191 -37.8125,23.6675 -21.5527,12.7103 -191.9565,111.4176 -200.5434,116.1658 -3.5744,1.9765 -9.5104,5.2775 -13.191,7.3357 l -6.6921,3.742 -8.7783,-13.9124 c -12.7839,-20.2604 -28.6977,-47.2725 -49.9653,-84.8109 -25.053,-44.2198 -25.623,-45.2896 -24.8236,-46.5831 0.3817,-0.6176 8.2607,-5.8642 17.5091,-11.6593 9.2483,-5.795 31.2281,-19.8615 48.8437,-31.2587 17.6157,-11.3972 49.671,-31.6873 71.234,-45.089 44.1101,-27.4151 78.9828,-50.4447 111.2054,-73.4391 30.9605,-22.0937 71.921,-53.475 72.0258,-55.1814 0.03,-0.4875 -677.9124,-0.8863 -1506.5385,-0.8863 -828.6261,0 -1506.593,0.3505 -1506.593,0.7789 0,0.4284 2.8854,10.1327 6.4118,21.5649 3.5264,11.4324 14.4681,47.9048 24.3148,81.0499 9.8466,33.145 79.5793,267.3759 154.9614,520.5131 116.0888,389.8323 141.6963,475.8756 147.0866,494.2215 0.575,1.957 -4.3944,2.0679 -92.752,2.0679 -59.2962,0 -93.6191,-0.4199 -94.0708,-1.1508 z M 1275.3732,1821.6351 c -6.4014,-23.7619 -84.8794,-302.2829 -109.956,-390.2371 -30.1399,-105.7136 -41.9564,-146.4939 -111.6205,-385.2151 -47.114,-161.44787 -77.81378,-267.32124 -77.81378,-268.35423 0,-0.25808 -3.41833,-0.46924 -7.59627,-0.46924 -9.03763,0 -10.5678,1.15396 -13.0228,9.821 -0.95518,3.37213 -23.06578,84.29675 -49.13467,179.83246 -57.21525,209.67901 -57.86308,212.00941 -74.40175,267.64181 -7.24525,24.3713 -49.26824,166.0797 -93.38443,314.9075 -44.11621,148.8277 -81.02796,273.2545 -82.02613,276.5041 -0.99818,3.2495 -1.82061,6.0411 -1.82766,6.2036 -0.007,0.1625 140.32902,0.2954 311.85787,0.2954 h 311.87062 z"
     id="path66"
     inkscape:connector-curvature="0"
     transform="scale(0.9374993)" />
  <path
     style="fill:#ffffff;stroke-width:1.18164146"
     d="M 1599.8896,1352.228 V 926.24626 h 66.172 66.1719 l 0.1178,58.78666 c 0.065,32.33268 0.4793,60.08108 0.9212,61.66308 0.7722,2.7649 0.9704,2.6503 5.109,-2.9541 4.7723,-6.4625 53.1965,-54.69175 67.1138,-66.84352 49.7252,-43.41746 98.2598,-65.79839 163.6573,-75.46791 24.1903,-3.57672 63.3768,-4.43052 85.669,-1.86656 56.4027,6.48722 101.3816,22.73999 141.797,51.23732 17.5351,12.36417 42.3387,37.83372 54.2122,55.66777 20.7687,31.1947 32.0204,62.4258 37.3329,103.6244 5.128,39.7669 5.1955,45.2586 4.4835,364.7299 l -0.6763,303.3865 h -72.456 -72.4561 l -0.3668,-303.9773 c -0.401,-332.2542 0.084,-308.3389 -6.8009,-335.3196 -7.9205,-31.0391 -29.1608,-61.5422 -58.4826,-83.9866 -45.3511,-34.7142 -104.1571,-42.9272 -162.958,-22.759 -51.1904,17.5578 -97.8449,55.8309 -125.6514,103.0782 -20.3441,34.5676 -33.9096,79.2545 -41.0321,135.1672 -5.1365,40.3214 -5.3346,50.8793 -5.3445,284.7622 l -0.01,223.0349 h -73.2618 -73.2618 z"
     id="path68"
     inkscape:connector-curvature="0"
     transform="scale(0.9374993)" />
  <path
     style="fill:#ffffff;stroke-width:1.18164146"
     d="m 2677.5467,1814.1247 c -43.3698,-5.2346 -73.7426,-18.7313 -99.2495,-44.1032 -25.3745,-25.2403 -37.2582,-52.2424 -42.68,-96.9778 -0.9825,-8.1058 -1.5026,-98.8264 -1.8717,-326.4285 l -0.5112,-315.2028 h -53.0978 -53.0978 v -52.58309 -52.58305 h 53.1738 53.1739 V 806.30965 686.37303 h 73.2618 73.2618 v 119.93662 119.93661 h 66.1719 66.1719 v 52.58305 52.58309 h -66.197 -66.197 l 0.3992,292.1608 c 0.3615,264.5313 0.5825,293.1666 2.3365,302.7956 6.1095,33.5391 16.3969,47.7365 40.4444,55.8161 9.3904,3.155 9.7179,3.1789 49.3335,3.6003 l 39.8804,0.4243 v 58.9982 c 0,32.449 -0.3988,59.0002 -0.8862,59.0027 -0.4874,0 -10.7234,1.347 -22.7466,2.9879 -40.9283,5.5859 -52.5701,6.6102 -79.7608,7.018 -14.9478,0.2241 -29.0389,0.1829 -31.3135,-0.092 z"
     id="path70"
     inkscape:connector-curvature="0"
     transform="scale(0.9374993)" />
  <path
     style="fill:#ffffff;stroke-width:1.18164146"
     d="m 3255.3694,1814.1048 c -67.0568,-4.0162 -131.288,-23.6353 -182.256,-55.6693 -50.3415,-31.6403 -96.0802,-84.1803 -127.829,-146.8372 -35.6574,-70.3706 -53.0984,-151.0675 -52.8652,-244.5998 0.078,-31.2022 0.4396,-36.8868 4.9244,-77.3632 6.8819,-62.1108 12.4139,-89.9535 25.9497,-130.6057 21.3679,-64.174 53.2118,-115.8161 97.4736,-158.0754 62.7517,-59.91268 138.8434,-92.62487 234.3999,-100.76972 20.7045,-1.76477 60.9729,-0.88706 81.7358,1.78155 87.1137,11.19652 162.1596,46.22234 217.7055,101.60867 53.2894,53.1364 86.5863,127.2178 100.6982,224.0405 4.8054,32.9703 11.1494,121.9939 11.259,157.9942 l 0.015,5.022 h -313.6508 -313.6509 l 0.5587,28.064 c 0.6411,32.2059 1.8963,45.6944 5.8003,62.3315 4.3258,18.4351 9.521,32.8581 18.302,50.8106 13.3696,27.3337 28.4065,47.7642 54.3591,73.8572 40.708,40.9283 84.5173,65.5747 135.8887,76.4486 14.4629,3.0613 60.0628,3.0612 74.2583,-2e-4 43.472,-9.3753 80.7539,-31.5864 121.3056,-72.2692 18.1503,-18.209 29.433,-31.774 52.6759,-63.3312 10.318,-14.0089 19.9679,-26.6042 21.4443,-27.9897 2.4932,-2.3396 4.6613,-2.6072 30.4529,-3.7585 35.5572,-1.5871 100.4395,-3.019 100.4395,-2.2166 0,1.8067 -21.9302,64.1449 -26.4357,75.1453 -23.7699,58.0361 -48.005,96.2562 -81.8337,129.0562 -53.6149,51.9847 -128.2125,84.7059 -216.682,95.0446 -15.7238,1.8375 -59.4674,3.1777 -74.4434,2.2808 z m 264.6877,-529.2376 c 0,-4.442 -6.7709,-50.9365 -9.0332,-62.0289 -14.6124,-71.649 -45.0353,-122.3103 -92.6127,-154.2222 -74.1532,-49.7373 -183.0859,-52.6877 -263.4598,-7.1358 -58.5811,33.2009 -95.2738,94.373 -110.492,184.2067 -1.5995,9.4417 -3.2658,22.2544 -3.7029,28.4726 l -0.7947,11.3057 h 240.0476 c 132.0262,0 240.0477,-0.2691 240.0477,-0.5981 z"
     id="path72"
     inkscape:connector-curvature="0"
     transform="scale(0.9374993)" />
</svg>
