<svg width="161" height="151" xmlns="http://www.w3.org/2000/svg" xmlns:xlink="http://www.w3.org/1999/xlink" overflow="hidden"><defs><clipPath id="clip0"><rect x="508" y="51" width="161" height="151"/></clipPath></defs><g clip-path="url(#clip0)" transform="translate(-508 -51)"><path d="M558.137 51 618.145 51 618.145 61 627.705 61 627.705 71 637.859 71 637.859 81 657.705 81 657.705 91 668 91 668 101 657.705 101 657.705 111 647.756 111 647.756 121 657.97 121 657.97 181 647.756 181 647.756 191 637.859 191 637.859 201 627.705 201 618.145 201 558.137 201 547.705 201 537.863 201 537.863 191 527.756 191 527.756 181 517.971 181 517.971 121 527.756 121 527.756 111 517.705 111 517.705 101 508 101 508 91 517.705 91 517.705 81 537.863 81 537.863 71 547.705 71 547.705 61 558.137 61Z" fill-rule="evenodd"/><path d="M548 91 628 91 628 101 638 101 638 121 648 121 648 181 638 181 638 191 628 191 548 191 538 191 538 181 528 181 528 121 538 121 538 101 548 101Z" fill="#FFF300" fill-rule="evenodd"/><path d="M558 141 618 141 618 151 628 151 628 181 618 181 618 191 558 191 558 181 548 181 548 151 558 151Z" fill="#FFFFFF" fill-rule="evenodd"/><rect x="578" y="141" width="20" height="10"/><rect x="578" y="161" width="20" height="10"/><rect x="598" y="171" width="10" height="10"/><rect x="608" y="161" width="10" height="10"/><rect x="569" y="171" width="10" height="10"/><rect x="559" y="161" width="10" height="10"/><rect x="548" y="111" width="20" height="30" fill="#FFFFFF"/><rect x="608" y="111" width="20" height="30" fill="#FFFFFF"/><rect x="558" y="121" width="10" height="20"/><rect x="608" y="121" width="10" height="20"/><path d="M557.986 61 617.951 61 617.951 71 627.989 71 627.989 81 638 81 638 121 618.003 121 618.003 111 617.951 111 557.986 111 557.986 121 538 121 538 81 548.015 81 548.015 71 557.986 71Z" fill="#00A2E8" fill-rule="evenodd"/><path d="M547.969 101 547.984 101 557.968 101 617.996 101 627.994 101 628.001 101 628.001 111 638 111 638 121 627.994 121 618.003 121 617.996 121 617.996 111 557.997 111 557.997 121 557.968 121 547.969 121 538 121 538 111 547.969 111Z" fill="#3F47CC" fill-rule="evenodd"/><path d="M518 91 528.013 91 537.974 91 538 91 538 111 528.013 111 528.013 101 518 101Z" fill="#FFF300" fill-rule="evenodd"/><path d="M638 91 638.017 91 647.991 91 658 91 658 101 647.991 101 647.991 111 638 111Z" fill="#FFF300" fill-rule="evenodd"/><rect x="578" y="71" width="20" height="20" fill="#FFFFFF"/></g></svg>