<?xml version="1.0" encoding="UTF-8"?>
<svg width="512" height="512" version="1.1" viewBox="0 0 135.46 135.46" xmlns="http://www.w3.org/2000/svg"><g><g fill="#ffd042" stroke="#000" stroke-linecap="square" stroke-linejoin="round" stroke-width="1.0583"><path d="m23.257 128.07c-1.6737 0-5.2414-10.564-6.4248-11.747s-11.747-4.7512-11.747-6.4248c0-1.6737 10.564-5.2414 11.747-6.4248 1.1835-1.1835 4.7512-11.747 6.4248-11.747 1.6737 0 5.2414 10.564 6.4248 11.747 1.1835 1.1835 11.747 4.7512 11.747 6.4248s-10.564 5.2414-11.747 6.4248c-1.1835 1.1835-4.7512 11.747-6.4248 11.747z"/><path d="m109.55 45.401c-1.8805 0-5.8891-11.869-7.2188-13.199-1.3297-1.3297-13.199-5.3383-13.199-7.2188 0-1.8805 11.869-5.8891 13.199-7.2188 1.3297-1.3297 5.3383-13.199 7.2188-13.199s5.8891 11.869 7.2188 13.199c1.3297 1.3297 13.199 5.3383 13.199 7.2188 0 1.8805-11.869 5.8891-13.199 7.2188-1.3297 1.3297-5.3383 13.199-7.2188 13.199z"/><path d="m114.31 128.35c-1.1358 0-3.5569-7.1689-4.3601-7.9721-0.80314-0.80313-7.9721-3.2242-7.9721-4.3601s7.1689-3.5569 7.9721-4.3601 3.2242-7.9721 4.3601-7.9721 3.5569 7.1689 4.3601 7.9721 7.9721 3.2243 7.9721 4.3601-7.1689 3.5569-7.9721 4.3601c-0.80314 0.80314-3.2243 7.9721-4.3601 7.9721z"/></g><g transform="matrix(-.17552 -.17513 .17552 -.17513 67.732 155.8)" opacity=".999" stroke-width="0"><path d="m395.43 251.37c0 0.962-0.018 1.919-0.036 2.876 0.023-0.955 0.036-1.914 0.036-2.876z" fill="none" stroke-width="0"/><g fill="#ffd042" stroke-width="0"><path d="m279.66 110.14c0.924 0.184 1.844 0.379 2.761 0.58-0.917-0.201-1.837-0.396-2.761-0.58z"/><path d="m286.32 111.63c1.041 0.26 2.078 0.53 3.111 0.813-1.032-0.282-2.069-0.553-3.111-0.813z"/><path d="m283.01 110.85c0.98 0.22 1.957 0.45 2.929 0.69-0.973-0.239-1.949-0.471-2.929-0.69z"/><path d="m395.39 254.25c0.019-0.957 0.036-1.915 0.036-2.876 0-0.786-0.022-1.565-0.035-2.348-0.012 8e-3 -0.023 0.015-0.035 0.022-0.051-3.104-0.212-6.178-0.464-9.227 0.015-0.01 0.029-0.019 0.044-0.029-0.604-7.305-1.758-14.452-3.418-21.405 0.031-0.021 0.061-0.042 0.092-0.063-1.766-7.518-4.124-14.807-7.016-21.819-15.586-4.7-73.717 10.929-140 38.382-18.732 7.759-36.336 15.726-52.128 23.488-2.248 10.108-3.443 20.613-3.443 31.398 0 41.168 17.304 78.272 45.001 104.52-25.063-3.021-48.141-12.482-67.54-26.67l-0.036 9e-3c23.819 17.44 53.191 27.745 84.975 27.745 72.008 0 131.67-52.855 142.31-121.88-0.067 0.041-0.133 0.082-0.201 0.122 0.986-6.343 1.691-12.781 1.854-19.36z"/><path d="m336.36 135.08c-13.912-10.177-29.717-17.917-46.79-22.595 17.057 4.682 32.842 12.433 46.744 22.606 0.015-4e-3 0.03-8e-3 0.046-0.011z"/><path d="m272.83 108.96c0.812 0.121 1.619 0.254 2.427 0.388-0.808-0.134-1.615-0.267-2.427-0.388z"/><path d="m269.35 108.48c0.761 0.094 1.519 0.201 2.276 0.308-0.757-0.107-1.514-0.214-2.276-0.308z"/><path d="m265.84 108.08c0.706 0.07 1.407 0.153 2.11 0.233-0.703-0.08-1.405-0.163-2.11-0.233z"/><path d="m262.28 107.78c0.646 0.048 1.289 0.109 1.934 0.166-0.645-0.056-1.288-0.117-1.934-0.166z"/><path d="m255.08 107.42c0.45 0.011 0.898 0.034 1.347 0.05-0.449-0.016-0.897-0.039-1.347-0.05z"/><path d="m258.7 107.55c0.573 0.029 1.142 0.07 1.713 0.105-0.571-0.035-1.141-0.076-1.713-0.105z"/><path d="m276.27 109.51c0.867 0.151 1.73 0.313 2.592 0.479-0.862-0.165-1.725-0.328-2.592-0.479z"/><path d="m128.96 327.13c-1.196-1.927-2.35-3.883-3.456-5.87 1.105 1.987 2.255 3.944 3.449 5.871 3e-3 0 5e-3 0 7e-3 -1e-3z"/><path d="m119.79 309.8c0.34 0.765 0.688 1.524 1.041 2.282-0.353-0.757-0.701-1.517-1.041-2.282z"/><path d="m122.57 315.69c0.402 0.804 0.811 1.603 1.228 2.399-0.417-0.795-0.826-1.595-1.228-2.399z"/><path d="m124.03 318.53c0.446 0.844 0.899 1.684 1.361 2.518-0.462-0.834-0.914-1.674-1.361-2.518z"/><path d="m121.15 312.78c0.368 0.78 0.744 1.555 1.126 2.327-0.382-0.772-0.757-1.548-1.126-2.327z"/><path d="m118.48 306.76c0.317 0.76 0.643 1.514 0.973 2.267-0.33-0.753-0.656-1.508-0.973-2.267z"/></g><g stroke-width="0"><path d="m189.03 289.77c0-10.785 1.195-21.29 3.443-31.398-40.088 19.702-68.488 38.078-74.006 48.367 3e-3 6e-3 5e-3 0.012 8e-3 0.018 0.317 0.76 0.643 1.514 0.973 2.267 0.113 0.257 0.224 0.516 0.338 0.772 0.34 0.765 0.688 1.525 1.041 2.282 0.108 0.232 0.215 0.464 0.325 0.696 0.368 0.78 0.744 1.555 1.126 2.327l0.294 0.591c0.402 0.804 0.811 1.604 1.228 2.399 0.076 0.146 0.154 0.292 0.231 0.438 0.446 0.844 0.899 1.684 1.361 2.518 0.039 0.071 0.079 0.141 0.118 0.211 1.106 1.987 2.26 3.943 3.456 5.87 0.052-0.01 0.101-0.019 0.153-0.029 3.776 6.088 7.995 11.867 12.604 17.303 0.059-0.012 0.117-0.024 0.177-0.037 1.97 2.32 3.965 4.608 6.075 6.797-0.04 9e-3 -0.078 0.017-0.118 0.025 5.762 5.985 12.032 11.477 18.751 16.399-0.039 0.01-0.076 0.018-0.115 0.028 19.399 14.188 42.477 23.649 67.54 26.67-27.699-26.242-45.003-63.346-45.003-104.51z" fill="#dbb246"/><path d="m336.31 135.09c-13.902-10.173-29.687-17.924-46.744-22.606-0.047-0.013-0.094-0.025-0.141-0.038-1.032-0.282-2.069-0.553-3.111-0.813-0.125-0.031-0.25-0.061-0.374-0.091-0.973-0.24-1.949-0.47-2.929-0.69-0.197-0.044-0.394-0.085-0.591-0.128-0.917-0.202-1.837-0.396-2.761-0.58-0.266-0.053-0.533-0.102-0.799-0.153-0.862-0.167-1.725-0.329-2.592-0.479-0.337-0.059-0.676-0.112-1.013-0.168-0.807-0.135-1.615-0.267-2.427-0.388-0.4-0.06-0.802-0.112-1.202-0.168-0.757-0.106-1.515-0.213-2.276-0.308-0.467-0.058-0.936-0.107-1.404-0.161-0.703-0.08-1.404-0.163-2.11-0.233-0.539-0.054-1.08-0.096-1.62-0.144-0.644-0.057-1.287-0.118-1.934-0.166-0.622-0.046-1.247-0.08-1.871-0.118-0.571-0.035-1.14-0.076-1.713-0.105-0.755-0.038-1.514-0.06-2.272-0.086-0.449-0.015-0.897-0.038-1.347-0.05-1.213-0.03-2.429-0.046-3.649-0.046-72.03 0-131.71 52.886-142.32 121.95 33.467-20.203 71.687-39.286 110.29-55.274 40.184-16.648 80.077-29.887 116.91-38.953z" fill="#dbb246"/><path d="m500.45 148.23v-4e-3c-9.359-22.59-43.781-31.23-99.531-25.031-19.884 2.215-41.629 6.243-64.558 11.885-0.015 4e-3 -0.031 8e-3 -0.046 0.011-21.027 5.1755-43.051 11.711-65.557 19.464-16.918 5.828-34.109 12.344-51.354 19.487-38.602 15.988-76.822 35.071-110.29 55.274-71.194 42.978-120.85 91.032-106.7 125.2 7.398 17.844 31.414 26.914 68.148 26.914 26.028 0 58.493-4.599 95.893-13.807l0.036-9e-3c0.039-0.01 0.076-0.018 0.115-0.028-6.719-4.922-12.989-10.414-18.751-16.399-27.116 5.97-51.087 9.111-70.179 9.111-25.144 0-41.901-5.37-46.548-16.627-13.104-31.747 75.128-98.287 197.07-148.62 78.701-32.485 152.22-50.281 197.98-50.283h9e-3c25.139 0 41.893 5.371 46.539 16.627 8.173 19.799-23.077 53.132-77.33 87.626 0.013 0.782 0.035 1.562 0.035 2.348 0 0.962-0.013 1.921-0.036 2.876-0.163 6.579-0.868 13.017-1.854 19.361 0.068-0.041 0.133-0.082 0.201-0.122 79.418-48.064 119.31-94.799 106.7-125.26z" fill="#d49e6c"/><path d="m231.25 202.45c-132.22 54.575-201.36 117.26-192.73 138.17 3.063 7.422 17.334 11.68 39.153 11.68 17.928 0 39.741-2.764 64.045-7.897-4.61-5.436-8.828-11.216-12.604-17.303-0.052 0.01-0.101 0.019-0.153 0.029-2e-3 0-4e-3 1e-3 -6e-3 1e-3 -41.083 7.978-58.897 4.329-60.63 0.13-1.125-2.727 4.031-16.211 41.25-41.609 32.422-22.133 78.039-45.813 128.43-66.688s99.39-36.383 137.97-43.664c16.953-3.203 29.344-4.313 38.25-4.313 14.352 0 19.641 2.891 20.336 4.57 1.733 4.18-8.271 19.353-42.949 42.764-0.031 0.021-0.061 0.042-0.092 0.063 1.66 6.953 2.814 14.1 3.418 21.405 51.099-33.256 75.75-62.353 70.39-75.34-3.063-7.422-17.331-11.68-39.144-11.68v-8l-8e-3 8c-46.701 2e-3 -119.57 18.574-194.93 49.678z" fill="#d49e6c"/><path d="m141.9 344.37c-0.059 0.013-0.117 0.024-0.177 0.037-24.305 5.134-46.117 7.897-64.045 7.897-21.818 0-36.089-4.257-39.153-11.68-8.633-20.915 60.511-83.599 192.73-138.17 75.356-31.104 148.22-49.676 194.92-49.678l8e-3 -8h-9e-3c-45.76 2e-3 -119.28 17.798-197.98 50.283-121.94 50.335-210.18 116.88-197.07 148.62 4.647 11.258 21.404 16.627 46.548 16.627 19.092 0 43.063-3.141 70.179-9.111 0.04-9e-3 0.078-0.017 0.118-0.025-2.11-2.19-4.105-4.478-6.075-6.798z" fill="#b68057"/><path d="m426.19 144.77v-1e-3" fill="none"/><path d="m465.33 164.45c5.361 12.987-19.291 42.084-70.39 75.34-0.015 0.01-0.029 0.019-0.044 0.029 0.252 3.049 0.413 6.124 0.464 9.227 0.012-7e-3 0.023-0.015 0.035-0.022 54.253-34.494 85.502-67.827 77.33-87.626-4.646-11.256-21.409-16.628-46.548-16.628l-0.67815 8.0013c21.813-1e-3 36.768 4.2557 39.831 11.679z" fill="#b68057"/></g><path d="m393.74 273.48c98.754-63.487 115.8-98.868 106.7-125.26-22.683-46.868-131.62-20.468-164.14-13.138-94.51 21.247-208.34 80.535-227.2 94.224-123.18 76.586-111.04 112.74-106.7 125.2 30.769 49.789 146.72 16.063 164.04 13.107" fill="none" stroke="#000" stroke-linejoin="round" stroke-width="4.2683"/><path d="m336.26 135.1c-89.84-64.443-209.86-10.579-227.15 94.213" fill="none" stroke="#000" stroke-linejoin="round" stroke-width="4.2683"/></g><g fill="#ffd042" stroke="#000" stroke-linecap="square" stroke-linejoin="round"><path d="m74.147 16.477c-0.4285 0.33676-3.3883-1.9023-3.9329-1.8817-0.5446 0.02058-3.3271 2.4766-3.7797 2.1731-0.45269-0.30346 0.76211-3.8103 0.57425-4.3219s-3.3835-2.3989-3.2348-2.9232c0.14872-0.5243 3.8594-0.45265 4.2878-0.78941s1.236-3.9592 1.7806-3.9798c0.5446-0.020577 1.6231 3.5306 2.0758 3.834 0.45269 0.30346 4.1473-0.047993 4.3352 0.46359 0.18786 0.51159-2.8562 2.6347-3.0049 3.159-0.14872 0.5243 1.3272 3.9295 0.89874 4.2663z" stroke-width="1.0583" style="paint-order:normal"/><path d="m83.29 19.353c0.37282 0.32485-1.1211 3.3428-1.0105 3.8247s2.7716 2.5457 2.5779 3.0007c-0.19374 0.45496-3.5256-0.03328-3.9498 0.2209-0.42416 0.25419-1.5646 3.4226-2.0572 3.379-0.49256-0.04367-1.0578-3.3633-1.4306-3.6882-0.37282-0.32485-3.7386-0.43042-3.8493-0.91236s2.8718-2.0454 3.0656-2.5003c0.19374-0.45496-0.74594-3.6886-0.32179-3.9428 0.42416-0.25419 2.8327 2.0992 3.3253 2.1429 0.49256 0.04367 3.2776-1.8493 3.6504-1.5244z" stroke-width="1.0583" style="paint-order:normal"/><g stroke-width="1.0583"><path d="m93.499 15.628c-0.18433 0.23453-2.0481-0.57341-2.3351-0.49202-0.28698 0.08139-1.4491 1.7475-1.7291 1.6447-0.28001-0.10284-0.08756-2.1251-0.25365-2.3729-0.16609-0.24778-2.1098-0.83818-2.0985-1.1363 0.01127-0.29808 1.994-0.73996 2.1783-0.97449 0.18433-0.23453 0.1452-2.2655 0.43218-2.3469 0.28698-0.08139 1.3199 1.6678 1.5999 1.7706 0.28001 0.10284 2.1995-0.562 2.3656-0.31421 0.16609 0.24778-1.1783 1.7707-1.1895 2.0688-0.01127 0.29808 1.2142 1.9182 1.0298 2.1527z" style="paint-order:normal"/><path d="m47.925 119.81c0.2673 0.5103-2.6308 3.1544-2.7145 3.7243-0.08369 0.56996 1.9319 3.9356 1.5292 4.3475s-3.813-1.5272-4.3809-1.4307c-0.56793 0.0965-3.146 3.0535-3.6622 2.7978-0.5162-0.25573 0.27423-4.0983 0.0069-4.6086-0.2673-0.5103-3.8762-2.0484-3.7925-2.6184 0.0837-0.56996 3.9824-1.0056 4.3852-1.4175 0.40272-0.41191 0.75035-4.3195 1.3183-4.416 0.56793-0.0965 2.187 3.4768 2.7033 3.7325 0.5162 0.25572 4.3399-0.62118 4.6072-0.11087z" style="paint-order:normal"/><path d="m57.134 109.91c0.01352 0.4383-2.8497 1.2863-3.0964 1.6488-0.24668 0.36253 0.01551 3.3372-0.39716 3.4855-0.41267 0.1483-2.1039-2.3128-2.525-2.4354s-3.1691 1.046-3.4376 0.69936 1.5494-2.7156 1.5359-3.154c-0.01352-0.4383-1.9741-2.6907-1.7274-3.0533s3.0615 0.63442 3.4742 0.48612c0.41267-0.14831 1.949-2.709 2.37-2.5864 0.42102 0.12258 0.3427 3.1077 0.61127 3.4544 0.26856 0.34664 3.1787 1.0165 3.1922 1.4548z" style="paint-order:normal"/><path d="m92.088 130.56c-0.50909-0.31778 0.70232-4.2209 0.47724-4.7773-0.22508-0.55633-3.8097-2.5191-3.6648-3.1014 0.14491-0.58237 4.2314-0.63639 4.6909-1.0224 0.45954-0.38597 1.2185-4.4017 1.8172-4.4439 0.59865-0.0421 1.9128 3.8276 2.4219 4.1454 0.50909 0.31777 4.5628-0.20134 4.7879 0.35498s-3.0492 3.002-3.1941 3.5844c-0.1449 0.58237 1.6015 4.2773 1.1419 4.6633-0.45954 0.38597-3.7973-1.9723-4.396-1.9301-0.59865 0.0421-3.5731 2.8448-4.0821 2.5271z" style="paint-order:normal"/><path d="m99.874 110.94c-0.18433 0.23453-2.0481-0.57341-2.3351-0.49202-0.28698 0.0814-1.4491 1.7475-1.7291 1.6447-0.28001-0.10284-0.08756-2.1251-0.25365-2.3729s-2.1098-0.83818-2.0985-1.1363c0.01128-0.29809 1.994-0.73996 2.1783-0.97449s0.1452-2.2655 0.43218-2.3469c0.28698-0.0814 1.3199 1.6678 1.5999 1.7706 0.28001 0.10284 2.1995-0.56199 2.3656-0.31421s-1.1783 1.7707-1.1895 2.0688c-0.01127 0.29809 1.2142 1.9182 1.0298 2.1527z" style="paint-order:normal"/></g></g><path d="m102.52 75.925c7.094 5.0014 11.024 8.6886 10.665 10.595-4.5022 4.3342-30.702-3.1541-48.792-10.75-18.162-7.4207-41.885-20.434-42.119-26.821 0.71987-1.8939 7.5734-1.0711 15.072 0.03748-0.6643 0.8528-2.964 5.3981-2.6255 5.0452 5.2731 7.3518 28.739 16.644 31.31 17.796 11.096 4.9641 30.995 10.94 34.754 9.5011z" fill="none" stroke="#000" stroke-linejoin="round" stroke-width="1.0583"/><path d="m36.357 50.621c2.575-4.3106 6.8394-8.9234 10.267-11.673 12.541-9.3285 26.645-6.9872 31.817-5.2347 21.353 7.1346 24.202 25.696 24.568 28.533 0.51967 4.5314 0.5805 9.378-0.55936 13.959" fill="none" stroke="#000" stroke-linejoin="round" stroke-width="1.0583"/></g></svg>
