<?xml version="1.0" encoding="UTF-8" standalone="no"?>
<svg
   xmlns:dc="http://purl.org/dc/elements/1.1/"
   xmlns:cc="http://creativecommons.org/ns#"
   xmlns:rdf="http://www.w3.org/1999/02/22-rdf-syntax-ns#"
   xmlns:svg="http://www.w3.org/2000/svg"
   xmlns="http://www.w3.org/2000/svg"
   width="512"
   height="512"
   viewBox="0 0 135.46496 135.46495"
   version="1.1"
   id="svg8">
  <defs
     id="defs2">
    <filter
       style="color-interpolation-filters:sRGB;"
       id="filter4627">
      <feComposite
         result="result0"
         operator="atop"
         in2="SourceGraphic"
         id="feComposite4621" />
      <feMorphology
         radius="4"
         result="result1"
         in="SourceAlpha"
         operator="dilate"
         id="feMorphology4623" />
      <feComposite
         in="result0"
         in2="result1"
         id="feComposite4625"
         operator="atop" />
    </filter>
  </defs>
  <metadata
     id="metadata5">
    <rdf:RDF>
      <cc:Work
         rdf:about="">
        <dc:format>image/svg+xml</dc:format>
        <dc:type
           rdf:resource="http://purl.org/dc/dcmitype/StillImage" />
        <dc:title></dc:title>
      </cc:Work>
    </rdf:RDF>
  </metadata>
  <g
     id="layer1">
    <path
       style="fill:#ffd042;fill-opacity:1;stroke:#000000;stroke-width:1.05832;stroke-miterlimit:4;stroke-dasharray:none;stroke-opacity:1"
       id="path3678"
       d="m 23.257208,128.06845 c -1.67369,0 -5.241371,-10.56389 -6.424849,-11.74737 -1.183478,-1.18348 -11.7473676,-4.75116 -11.7473675,-6.42485 0,-1.67369 10.5638895,-5.24137 11.7473675,-6.42485 1.183478,-1.18347 4.751158,-11.747364 6.424848,-11.747364 1.673691,0 5.241372,10.563894 6.42485,11.747364 1.183477,1.18348 11.747367,4.75116 11.747367,6.42485 0,1.67369 -10.56389,5.24137 -11.747367,6.42485 -1.183478,1.18348 -4.751158,11.74737 -6.424849,11.74737 z" />
    <path
       style="fill:#ffd042;fill-opacity:1;stroke:#000000;stroke-width:1.05832;stroke-miterlimit:4;stroke-dasharray:none;stroke-opacity:1"
       id="path3678-6"
       d="m 109.55175,45.400955 c -1.88051,0 -5.88906,-11.869294 -7.21878,-13.199017 -1.32973,-1.329723 -13.199021,-5.338271 -13.199021,-7.218783 0,-1.880513 11.869291,-5.889061 13.199021,-7.218784 1.32972,-1.329723 5.33827,-13.1990176 7.21878,-13.1990176 1.88051,0 5.88906,11.8692946 7.21878,13.1990176 1.32973,1.329723 13.19902,5.33827 13.19902,7.218783 0,1.880512 -11.86929,5.889061 -13.19902,7.218784 -1.32972,1.329723 -5.33827,13.199017 -7.21878,13.199017 z" />
    <path
       style="fill:#ffd042;fill-opacity:1;stroke:#000000;stroke-width:1.05832;stroke-miterlimit:4;stroke-dasharray:none;stroke-opacity:1"
       id="path3678-7"
       d="m 114.30586,128.3547 c -1.13581,0 -3.55692,-7.16893 -4.36006,-7.97207 -0.80314,-0.80313 -7.97207,-3.22425 -7.97207,-4.36006 0,-1.13581 7.16893,-3.55693 7.97207,-4.36007 0.80314,-0.80314 3.22425,-7.97206 4.36006,-7.97206 1.13581,0 3.55693,7.16892 4.36007,7.97206 0.80314,0.80314 7.97206,3.22426 7.97206,4.36007 0,1.13581 -7.16892,3.55693 -7.97206,4.36006 -0.80314,0.80314 -3.22426,7.97207 -4.36007,7.97207 z" />
    <g
       id="g3910"
       style="stroke:#000000;stroke-width:0;stroke-miterlimit:4;stroke-dasharray:none;stroke-opacity:1;filter:url(#filter4627);opacity:0.999"
       transform="matrix(-0.17552464,-0.17513221,0.17552464,-0.17513221,67.732287,155.80071)">
      <path
         style="fill:none;stroke:#000000;stroke-width:0;stroke-miterlimit:4;stroke-dasharray:none;stroke-opacity:1"
         d="m 395.431,251.37 c 0,0.962 -0.018,1.919 -0.036,2.876 0.023,-0.955 0.036,-1.914 0.036,-2.876 z"
         id="path3856" />
      <path
         style="fill:#ffd042;stroke:#000000;stroke-width:0;stroke-miterlimit:4;stroke-dasharray:none;stroke-opacity:1"
         d="m 279.66,110.144 c 0.924,0.184 1.844,0.379 2.761,0.58 -0.917,-0.201 -1.837,-0.396 -2.761,-0.58 z"
         id="path3860" />
      <path
         style="fill:#ffd042;stroke:#000000;stroke-width:0;stroke-miterlimit:4;stroke-dasharray:none;stroke-opacity:1"
         d="m 286.315,111.634 c 1.041,0.26 2.078,0.53 3.111,0.813 -1.032,-0.282 -2.069,-0.553 -3.111,-0.813 z"
         id="path3862" />
      <path
         style="fill:#ffd042;stroke:#000000;stroke-width:0;stroke-miterlimit:4;stroke-dasharray:none;stroke-opacity:1"
         d="m 283.012,110.853 c 0.98,0.22 1.957,0.45 2.929,0.69 -0.973,-0.239 -1.949,-0.471 -2.929,-0.69 z"
         id="path3864" />
      <path
         style="fill:#ffd042;stroke:#000000;stroke-width:0;stroke-miterlimit:4;stroke-dasharray:none;stroke-opacity:1"
         d="m 395.394,254.246 c 0.019,-0.957 0.036,-1.915 0.036,-2.876 0,-0.786 -0.022,-1.565 -0.035,-2.348 -0.012,0.008 -0.023,0.015 -0.035,0.022 -0.051,-3.104 -0.212,-6.178 -0.464,-9.227 0.015,-0.01 0.029,-0.019 0.044,-0.029 -0.604,-7.305 -1.758,-14.452 -3.418,-21.405 0.031,-0.021 0.061,-0.042 0.092,-0.063 -1.766,-7.518 -4.124,-14.807 -7.016,-21.819 -15.586,-4.7 -73.717,10.929 -139.996,38.382 -18.732,7.759 -36.336,15.726 -52.128,23.488 -2.248,10.108 -3.443,20.613 -3.443,31.398 0,41.168 17.304,78.272 45.001,104.516 -25.063,-3.021 -48.141,-12.482 -67.54,-26.67 -0.012,0.003 -0.024,0.006 -0.036,0.009 23.819,17.44 53.191,27.745 84.975,27.745 72.008,0 131.67,-52.855 142.31,-121.885 -0.067,0.041 -0.133,0.082 -0.201,0.122 0.986,-6.343 1.691,-12.781 1.854,-19.36 z"
         id="path3866" />
      <path
         style="fill:#ffd042;stroke:#000000;stroke-width:0;stroke-miterlimit:4;stroke-dasharray:none;stroke-opacity:1"
         d="m 336.357,135.08 c -13.912,-10.177 -29.717,-17.917 -46.79,-22.595 17.057,4.682 32.842,12.433 46.744,22.606 0.015,-0.004 0.03,-0.008 0.046,-0.011 z"
         id="path3868" />
      <path
         style="fill:#ffd042;stroke:#000000;stroke-width:0;stroke-miterlimit:4;stroke-dasharray:none;stroke-opacity:1"
         d="m 272.829,108.955 c 0.812,0.121 1.619,0.254 2.427,0.388 -0.808,-0.134 -1.615,-0.267 -2.427,-0.388 z"
         id="path3870" />
      <path
         style="fill:#ffd042;stroke:#000000;stroke-width:0;stroke-miterlimit:4;stroke-dasharray:none;stroke-opacity:1"
         d="m 269.35,108.479 c 0.761,0.094 1.519,0.201 2.276,0.308 -0.757,-0.107 -1.514,-0.214 -2.276,-0.308 z"
         id="path3872" />
      <path
         style="fill:#ffd042;stroke:#000000;stroke-width:0;stroke-miterlimit:4;stroke-dasharray:none;stroke-opacity:1"
         d="m 265.837,108.085 c 0.706,0.07 1.407,0.153 2.11,0.233 -0.703,-0.08 -1.405,-0.163 -2.11,-0.233 z"
         id="path3874" />
      <path
         style="fill:#ffd042;stroke:#000000;stroke-width:0;stroke-miterlimit:4;stroke-dasharray:none;stroke-opacity:1"
         d="m 262.283,107.775 c 0.646,0.048 1.289,0.109 1.934,0.166 -0.645,-0.056 -1.288,-0.117 -1.934,-0.166 z"
         id="path3876" />
      <path
         style="fill:#ffd042;stroke:#000000;stroke-width:0;stroke-miterlimit:4;stroke-dasharray:none;stroke-opacity:1"
         d="m 255.08,107.416 c 0.45,0.011 0.898,0.034 1.347,0.05 -0.449,-0.016 -0.897,-0.039 -1.347,-0.05 z"
         id="path3878" />
      <path
         style="fill:#ffd042;stroke:#000000;stroke-width:0;stroke-miterlimit:4;stroke-dasharray:none;stroke-opacity:1"
         d="m 258.699,107.552 c 0.573,0.029 1.142,0.07 1.713,0.105 -0.571,-0.035 -1.141,-0.076 -1.713,-0.105 z"
         id="path3880" />
      <path
         style="fill:#ffd042;stroke:#000000;stroke-width:0;stroke-miterlimit:4;stroke-dasharray:none;stroke-opacity:1"
         d="m 276.269,109.511 c 0.867,0.151 1.73,0.313 2.592,0.479 -0.862,-0.165 -1.725,-0.328 -2.592,-0.479 z"
         id="path3882" />
      <path
         style="fill:#ffd042;stroke:#000000;stroke-width:0;stroke-miterlimit:4;stroke-dasharray:none;stroke-opacity:1"
         d="m 128.965,327.129 c -1.196,-1.927 -2.35,-3.883 -3.456,-5.87 1.105,1.987 2.255,3.944 3.449,5.871 0.003,0 0.005,0 0.007,-10e-4 z"
         id="path3884" />
      <path
         style="fill:#ffd042;stroke:#000000;stroke-width:0;stroke-miterlimit:4;stroke-dasharray:none;stroke-opacity:1"
         d="m 119.786,309.797 c 0.34,0.765 0.688,1.524 1.041,2.282 -0.353,-0.757 -0.701,-1.517 -1.041,-2.282 z"
         id="path3886" />
      <path
         style="fill:#ffd042;stroke:#000000;stroke-width:0;stroke-miterlimit:4;stroke-dasharray:none;stroke-opacity:1"
         d="m 122.572,315.693 c 0.402,0.804 0.811,1.603 1.228,2.399 -0.417,-0.795 -0.826,-1.595 -1.228,-2.399 z"
         id="path3888" />
      <path
         style="fill:#ffd042;stroke:#000000;stroke-width:0;stroke-miterlimit:4;stroke-dasharray:none;stroke-opacity:1"
         d="m 124.03,318.53 c 0.446,0.844 0.899,1.684 1.361,2.518 -0.462,-0.834 -0.914,-1.674 -1.361,-2.518 z"
         id="path3890" />
      <path
         style="fill:#ffd042;stroke:#000000;stroke-width:0;stroke-miterlimit:4;stroke-dasharray:none;stroke-opacity:1"
         d="m 121.152,312.775 c 0.368,0.78 0.744,1.555 1.126,2.327 -0.382,-0.772 -0.757,-1.548 -1.126,-2.327 z"
         id="path3892" />
      <path
         style="fill:#ffd042;stroke:#000000;stroke-width:0;stroke-miterlimit:4;stroke-dasharray:none;stroke-opacity:1"
         d="m 118.476,306.758 c 0.317,0.76 0.643,1.514 0.973,2.267 -0.33,-0.753 -0.656,-1.508 -0.973,-2.267 z"
         id="path3894" />
      <path
         style="fill:#dbb246;stroke:#000000;stroke-width:0;stroke-miterlimit:4;stroke-dasharray:none;stroke-opacity:1"
         d="m 189.031,289.77 c 0,-10.785 1.195,-21.29 3.443,-31.398 -40.088,19.702 -68.488,38.078 -74.006,48.367 0.003,0.006 0.005,0.012 0.008,0.018 0.317,0.76 0.643,1.514 0.973,2.267 0.113,0.257 0.224,0.516 0.338,0.772 0.34,0.765 0.688,1.525 1.041,2.282 0.108,0.232 0.215,0.464 0.325,0.696 0.368,0.78 0.744,1.555 1.126,2.327 0.098,0.197 0.196,0.394 0.294,0.591 0.402,0.804 0.811,1.604 1.228,2.399 0.076,0.146 0.154,0.292 0.231,0.438 0.446,0.844 0.899,1.684 1.361,2.518 0.039,0.071 0.079,0.141 0.118,0.211 1.106,1.987 2.26,3.943 3.456,5.87 0.052,-0.01 0.101,-0.019 0.153,-0.029 3.776,6.088 7.995,11.867 12.604,17.303 0.059,-0.012 0.117,-0.024 0.177,-0.037 1.97,2.32 3.965,4.608 6.075,6.797 -0.04,0.009 -0.078,0.017 -0.118,0.025 5.762,5.985 12.032,11.477 18.751,16.399 -0.039,0.01 -0.076,0.018 -0.115,0.028 19.399,14.188 42.477,23.649 67.54,26.67 -27.699,-26.242 -45.003,-63.346 -45.003,-104.514 z"
         id="path3896" />
      <path
         style="fill:#dbb246;stroke:#000000;stroke-width:0;stroke-miterlimit:4;stroke-dasharray:none;stroke-opacity:1"
         d="m 336.311,135.091 c -13.902,-10.173 -29.687,-17.924 -46.744,-22.606 -0.047,-0.013 -0.094,-0.025 -0.141,-0.038 -1.032,-0.282 -2.069,-0.553 -3.111,-0.813 -0.125,-0.031 -0.25,-0.061 -0.374,-0.091 -0.973,-0.24 -1.949,-0.47 -2.929,-0.69 -0.197,-0.044 -0.394,-0.085 -0.591,-0.128 -0.917,-0.202 -1.837,-0.396 -2.761,-0.58 -0.266,-0.053 -0.533,-0.102 -0.799,-0.153 -0.862,-0.167 -1.725,-0.329 -2.592,-0.479 -0.337,-0.059 -0.676,-0.112 -1.013,-0.168 -0.807,-0.135 -1.615,-0.267 -2.427,-0.388 -0.4,-0.06 -0.802,-0.112 -1.202,-0.168 -0.757,-0.106 -1.515,-0.213 -2.276,-0.308 -0.467,-0.058 -0.936,-0.107 -1.404,-0.161 -0.703,-0.08 -1.404,-0.163 -2.11,-0.233 -0.539,-0.054 -1.08,-0.096 -1.62,-0.144 -0.644,-0.057 -1.287,-0.118 -1.934,-0.166 -0.622,-0.046 -1.247,-0.08 -1.871,-0.118 -0.571,-0.035 -1.14,-0.076 -1.713,-0.105 -0.755,-0.038 -1.514,-0.06 -2.272,-0.086 -0.449,-0.015 -0.897,-0.038 -1.347,-0.05 -1.213,-0.03 -2.429,-0.046 -3.649,-0.046 -72.03,0 -131.706,52.886 -142.32,121.946 33.467,-20.203 71.687,-39.286 110.289,-55.274 40.184,-16.648 80.077,-29.887 116.911,-38.953 z"
         id="path3898" />
      <path
         style="fill:#d49e6c;stroke:#000000;stroke-width:0;stroke-miterlimit:4;stroke-dasharray:none;stroke-opacity:1"
         d="m 500.446,148.229 v -0.004 c -9.359,-22.59 -43.781,-31.23 -99.531,-25.031 -19.884,2.215 -41.629,6.243 -64.558,11.885 -0.015,0.004 -0.031,0.008 -0.046,0.011 -21.02682,5.1755 -43.05086,11.71094 -65.55717,19.46382 -16.91834,5.82796 -34.1092,12.34387 -51.35383,19.48718 -38.602,15.988 -76.822,35.071 -110.289,55.274 -71.194,42.978 -120.848,91.032 -106.696,125.203 7.398,17.844 31.414,26.914 68.148,26.914 26.028,0 58.493,-4.599 95.893,-13.807 l 0.036,-0.009 c 0.039,-0.01 0.076,-0.018 0.115,-0.028 -6.719,-4.922 -12.989,-10.414 -18.751,-16.399 -27.116,5.97 -51.087,9.111 -70.179,9.111 -25.144,0 -41.901,-5.37 -46.548,-16.627 -13.104,-31.747 75.128,-98.287 197.071,-148.621 78.701,-32.485 152.217,-50.281 197.977,-50.283 h 0.009 v 0 0 c 25.139,0 41.893,5.371 46.539,16.627 8.173,19.799 -23.077,53.132 -77.33,87.626 0.013,0.782 0.035,1.562 0.035,2.348 0,0.962 -0.013,1.921 -0.036,2.876 -0.163,6.579 -0.868,13.017 -1.854,19.361 0.068,-0.041 0.133,-0.082 0.201,-0.122 79.418,-48.064 119.313,-94.799 106.705,-125.256 z"
         id="path3900" />
      <path
         style="fill:#d49e6c;stroke:#000000;stroke-width:0;stroke-miterlimit:4;stroke-dasharray:none;stroke-opacity:0.98868322"
         d="M 231.253,202.447 C 99.035,257.022 29.891,319.706 38.524,340.621 c 3.063,7.422 17.334,11.68 39.153,11.68 17.928,0 39.741,-2.764 64.045,-7.897 -4.61,-5.436 -8.828,-11.216 -12.604,-17.303 -0.052,0.01 -0.101,0.019 -0.153,0.029 -0.002,0 -0.004,10e-4 -0.006,10e-4 -41.083,7.978 -58.897,4.329 -60.63,0.13 -1.125,-2.727 4.031,-16.211 41.25,-41.609 32.422,-22.133 78.039,-45.813 128.43,-66.688 50.391,-20.875 99.39,-36.383 137.969,-43.664 16.953,-3.203 29.344,-4.313 38.25,-4.313 14.352,0 19.641,2.891 20.336,4.57 1.733,4.18 -8.271,19.353 -42.949,42.764 -0.031,0.021 -0.061,0.042 -0.092,0.063 1.66,6.953 2.814,14.1 3.418,21.405 51.099,-33.256 75.75,-62.353 70.39,-75.34 -3.063,-7.422 -17.331,-11.68 -39.144,-11.68 v -8 l -0.008,8 c -46.701,0.002 -119.57,18.574 -194.926,49.678 z"
         id="path3902" />
      <path
         style="fill:#b68057;stroke:#000000;stroke-width:0;stroke-miterlimit:4;stroke-dasharray:none;stroke-opacity:1"
         d="m 141.899,344.367 c -0.059,0.013 -0.117,0.024 -0.177,0.037 -24.305,5.134 -46.117,7.897 -64.045,7.897 -21.818,0 -36.089,-4.257 -39.153,-11.68 -8.633,-20.915 60.511,-83.599 192.729,-138.174 75.356,-31.104 148.225,-49.676 194.925,-49.678 l 0.008,-8 c 0,0 -0.006,0 -0.009,0 -45.76,0.002 -119.276,17.798 -197.977,50.283 -121.943,50.335 -210.175,116.875 -197.071,148.622 4.647,11.258 21.404,16.627 46.548,16.627 19.092,0 43.063,-3.141 70.179,-9.111 0.04,-0.009 0.078,-0.017 0.118,-0.025 -2.11,-2.19 -4.105,-4.478 -6.075,-6.798 z"
         id="path3904" />
      <path
         id="line3906"
         style="fill:none;stroke:#000000;stroke-width:0;stroke-linecap:round;stroke-linejoin:round;stroke-miterlimit:4;stroke-dasharray:none;stroke-opacity:1"
         d="m 426.186,144.77 v -0.001" />
      <path
         style="fill:#b68057;stroke:#000000;stroke-width:0;stroke-miterlimit:4;stroke-dasharray:none;stroke-opacity:1"
         d="m 465.33,164.449 c 5.361,12.987 -19.291,42.084 -70.39,75.34 -0.015,0.01 -0.029,0.019 -0.044,0.029 0.252,3.049 0.413,6.124 0.464,9.227 0.012,-0.007 0.023,-0.015 0.035,-0.022 54.253,-34.494 85.502,-67.827 77.33,-87.626 -4.646,-11.256 -21.409,-16.628 -46.548,-16.628 l 0.009,8.001 c 21.813,-0.001 36.081,4.256 39.144,11.679 z"
         id="path3908" />
    </g>
    <g
       id="g3912"
       style="stroke-width:0;stroke-miterlimit:4;stroke-dasharray:none"
       transform="matrix(-0.17552464,-0.17513221,0.17552464,-0.17513221,67.732287,155.80071)" />
    <g
       id="g3914"
       style="stroke-width:0;stroke-miterlimit:4;stroke-dasharray:none"
       transform="matrix(-0.17552464,-0.17513221,0.17552464,-0.17513221,67.732287,155.80071)" />
    <g
       id="g3916"
       style="stroke-width:0;stroke-miterlimit:4;stroke-dasharray:none"
       transform="matrix(-0.17552464,-0.17513221,0.17552464,-0.17513221,67.732287,155.80071)" />
    <g
       id="g3918"
       style="stroke-width:0;stroke-miterlimit:4;stroke-dasharray:none"
       transform="matrix(-0.17552464,-0.17513221,0.17552464,-0.17513221,67.732287,155.80071)" />
    <g
       id="g3920"
       style="stroke-width:0;stroke-miterlimit:4;stroke-dasharray:none"
       transform="matrix(-0.17552464,-0.17513221,0.17552464,-0.17513221,67.732287,155.80071)" />
    <g
       id="g3922"
       style="stroke-width:0;stroke-miterlimit:4;stroke-dasharray:none"
       transform="matrix(-0.17552464,-0.17513221,0.17552464,-0.17513221,67.732287,155.80071)" />
    <g
       id="g3924"
       style="stroke-width:0;stroke-miterlimit:4;stroke-dasharray:none"
       transform="matrix(-0.17552464,-0.17513221,0.17552464,-0.17513221,67.732287,155.80071)" />
    <g
       id="g3926"
       style="stroke-width:0;stroke-miterlimit:4;stroke-dasharray:none"
       transform="matrix(-0.17552464,-0.17513221,0.17552464,-0.17513221,67.732287,155.80071)" />
    <g
       id="g3928"
       style="stroke-width:0;stroke-miterlimit:4;stroke-dasharray:none"
       transform="matrix(-0.17552464,-0.17513221,0.17552464,-0.17513221,67.732287,155.80071)" />
    <g
       id="g3930"
       style="stroke-width:0;stroke-miterlimit:4;stroke-dasharray:none"
       transform="matrix(-0.17552464,-0.17513221,0.17552464,-0.17513221,67.732287,155.80071)" />
    <g
       id="g3932"
       style="stroke-width:0;stroke-miterlimit:4;stroke-dasharray:none"
       transform="matrix(-0.17552464,-0.17513221,0.17552464,-0.17513221,67.732287,155.80071)" />
    <g
       id="g3934"
       style="stroke-width:0;stroke-miterlimit:4;stroke-dasharray:none"
       transform="matrix(-0.17552464,-0.17513221,0.17552464,-0.17513221,67.732287,155.80071)" />
    <g
       id="g3936"
       style="stroke-width:0;stroke-miterlimit:4;stroke-dasharray:none"
       transform="matrix(-0.17552464,-0.17513221,0.17552464,-0.17513221,67.732287,155.80071)" />
    <g
       id="g3938"
       style="stroke-width:0;stroke-miterlimit:4;stroke-dasharray:none"
       transform="matrix(-0.17552464,-0.17513221,0.17552464,-0.17513221,67.732287,155.80071)" />
    <g
       id="g3940"
       style="stroke-width:0;stroke-miterlimit:4;stroke-dasharray:none"
       transform="matrix(-0.17552464,-0.17513221,0.17552464,-0.17513221,67.732287,155.80071)" />
    <path
       style="fill:none;stroke:#000000;stroke-width:4.26825;stroke-linecap:butt;stroke-linejoin:miter;stroke-miterlimit:4;stroke-dasharray:none;stroke-opacity:1"
       d="M 338.09919,132.44353 C 254.42943,153.58526 173.47164,189.03488 104.67235,229.4125"
       id="path4708"
       transform="matrix(-0.17552464,-0.17513221,0.17552464,-0.17513221,67.732287,155.80071)" />
    <path
       style="fill:none;stroke:#000000;stroke-width:4.26825;stroke-linecap:butt;stroke-linejoin:miter;stroke-miterlimit:4;stroke-dasharray:none;stroke-opacity:1"
       d="m 394.89877,279.41857 c 4.07496,-22.53138 0.58521,-47.02855 -1.67703,-64.07047"
       id="path4713"
       transform="matrix(-0.17552464,-0.17513221,0.17552464,-0.17513221,67.732287,155.80071)" />
    <path
       style="fill:none;stroke:#000000;stroke-width:1.05832;stroke-linecap:butt;stroke-linejoin:miter;stroke-miterlimit:4;stroke-dasharray:none;stroke-opacity:1"
       d="m 102.87418,76.927417 c 0.66393,-4.44186 1.37993,-10.975215 0.52715,-15.761956"
       id="path4716" />
    <path
       style="fill:#ffd042;fill-opacity:1;fill-rule:nonzero;stroke:#000000;stroke-width:1.05832;stroke-linecap:square;stroke-linejoin:miter;stroke-miterlimit:4;stroke-dasharray:none;stroke-opacity:1;paint-order:normal"
       id="path4744"
       d="m 74.146905,16.477055 c -0.428496,0.336755 -3.388346,-1.902267 -3.932946,-1.88169 -0.5446,0.02058 -3.327053,2.476568 -3.779739,2.173108 -0.452686,-0.303461 0.762108,-3.810341 0.574247,-4.321928 -0.187861,-0.511587 -3.383472,-2.398914 -3.234752,-2.9232181 0.148721,-0.5243043 3.859354,-0.4526527 4.28785,-0.789408 0.428496,-0.3367553 1.235952,-3.9591784 1.780552,-3.9797556 0.5446,-0.020577 1.623104,3.5305862 2.07579,3.8340468 0.452686,0.3034607 4.147333,-0.047993 4.335194,0.4635936 0.18786,0.5115868 -2.856221,2.6346753 -3.004941,3.1589793 -0.148721,0.524304 1.32724,3.929517 0.898745,4.266272 z" />
    <path
       style="fill:#ffd042;fill-opacity:1;fill-rule:nonzero;stroke:#000000;stroke-width:1.05832;stroke-linecap:square;stroke-linejoin:miter;stroke-miterlimit:4;stroke-dasharray:none;stroke-opacity:1;paint-order:normal"
       id="path4746"
       d="m 83.289869,19.353122 c 0.372822,0.324849 -1.121129,3.342769 -1.010452,3.824717 0.110677,0.481948 2.771612,2.545718 2.57787,3.000677 -0.193742,0.454958 -3.52561,-0.03328 -3.949769,0.220905 -0.424158,0.25419 -1.564647,3.42263 -2.057208,3.37896 -0.49256,-0.04367 -1.057818,-3.36334 -1.430639,-3.68819 -0.372821,-0.324849 -3.738617,-0.430416 -3.849294,-0.912364 -0.110677,-0.481948 2.871843,-2.045374 3.065585,-2.500333 0.193742,-0.454958 -0.745945,-3.688642 -0.321787,-3.942832 0.424159,-0.25419 2.832715,2.09923 3.325275,2.1429 0.492561,0.04367 3.277598,-1.84929 3.650419,-1.52444 z" />
    <path
       style="fill:#ffd042;fill-opacity:1;fill-rule:nonzero;stroke:#000000;stroke-width:1.05832;stroke-linecap:square;stroke-linejoin:miter;stroke-miterlimit:4;stroke-dasharray:none;stroke-opacity:1;paint-order:normal"
       id="path4748"
       d="m 93.498903,15.628348 c -0.184331,0.234528 -2.048127,-0.57341 -2.335106,-0.492021 -0.286979,0.08139 -1.449111,1.747507 -1.729122,1.644671 -0.28001,-0.102836 -0.08756,-2.125078 -0.253648,-2.37286 -0.166087,-0.247783 -2.109778,-0.838178 -2.098502,-1.136262 0.01127,-0.298084 1.994011,-0.73996 2.178342,-0.974488 0.184332,-0.234528 0.145197,-2.265529 0.432176,-2.3469184 0.286979,-0.08139 1.319927,1.6677574 1.599938,1.7705934 0.280011,0.102837 2.199514,-0.561996 2.365602,-0.314214 0.166088,0.247783 -1.178251,1.770691 -1.189527,2.068775 -0.01127,0.298084 1.214178,1.918196 1.029847,2.152724 z" />
    <path
       style="fill:#ffd042;fill-opacity:1;fill-rule:nonzero;stroke:#000000;stroke-width:1.05832;stroke-linecap:square;stroke-linejoin:miter;stroke-miterlimit:4;stroke-dasharray:none;stroke-opacity:1;paint-order:normal"
       id="path4750"
       d="m 47.925495,119.81221 c 0.267303,0.5103 -2.630763,3.15438 -2.714458,3.72434 -0.08369,0.56996 1.931886,3.93559 1.529161,4.3475 -0.402725,0.41191 -3.81295,-1.52725 -4.380878,-1.43072 -0.567928,0.0965 -3.145975,3.0535 -3.662177,2.79777 -0.516201,-0.25573 0.27423,-4.09828 0.0069,-4.60858 -0.267304,-0.5103 -3.876206,-2.04842 -3.792511,-2.61838 0.0837,-0.56996 3.982434,-1.00562 4.385159,-1.41754 0.402725,-0.41191 0.750348,-4.31948 1.318276,-4.41601 0.567928,-0.0965 2.187049,3.47676 2.703251,3.73249 0.516202,0.25572 4.339946,-0.62118 4.60725,-0.11087 z" />
    <path
       style="fill:#ffd042;fill-opacity:1;fill-rule:nonzero;stroke:#000000;stroke-width:1.05832;stroke-linecap:square;stroke-linejoin:miter;stroke-miterlimit:4;stroke-dasharray:none;stroke-opacity:1;paint-order:normal"
       id="path4752"
       d="m 57.134248,109.90745 c 0.01352,0.4383 -2.849738,1.28628 -3.096423,1.64882 -0.246685,0.36253 0.01551,3.33719 -0.397156,3.48549 -0.412667,0.1483 -2.103937,-2.31278 -2.524962,-2.43536 -0.421025,-0.12258 -3.169067,1.046 -3.437632,0.69936 -0.268565,-0.34664 1.549432,-2.71565 1.53591,-3.15395 -0.01352,-0.4383 -1.974103,-2.69073 -1.727418,-3.05327 0.246685,-0.36254 3.06154,0.63442 3.474207,0.48612 0.412667,-0.14831 1.949005,-2.70897 2.370029,-2.58639 0.421025,0.12258 0.342704,3.10774 0.611269,3.45439 0.268565,0.34664 3.178653,1.01649 3.192176,1.45479 z" />
    <path
       style="fill:#ffd042;fill-opacity:1;fill-rule:nonzero;stroke:#000000;stroke-width:1.05832;stroke-linecap:square;stroke-linejoin:miter;stroke-miterlimit:4;stroke-dasharray:none;stroke-opacity:1;paint-order:normal"
       id="path4754"
       d="m 92.087577,130.55669 c -0.509092,-0.31778 0.702321,-4.22094 0.477242,-4.77726 -0.225079,-0.55633 -3.809744,-2.51907 -3.664838,-3.10145 0.144906,-0.58237 4.231381,-0.63639 4.690922,-1.02237 0.459541,-0.38597 1.218502,-4.40172 1.81715,-4.44387 0.598648,-0.0421 1.912816,3.82763 2.421908,4.14541 0.509091,0.31777 4.562819,-0.20134 4.787899,0.35498 0.22508,0.55632 -3.049196,3.002 -3.194102,3.58437 -0.144905,0.58237 1.601472,4.27728 1.141932,4.66326 -0.45954,0.38597 -3.79732,-1.97229 -4.395968,-1.93014 -0.598648,0.0421 -3.573054,2.84484 -4.082145,2.52707 z" />
    <path
       style="fill:#ffd042;fill-opacity:1;fill-rule:nonzero;stroke:#000000;stroke-width:1.05832;stroke-linecap:square;stroke-linejoin:miter;stroke-miterlimit:4;stroke-dasharray:none;stroke-opacity:1;paint-order:normal"
       id="path4748-5"
       d="m 99.873598,110.94419 c -0.184331,0.23453 -2.048127,-0.57341 -2.335106,-0.49202 -0.286979,0.0814 -1.449111,1.74751 -1.729122,1.64467 -0.28001,-0.10284 -0.08756,-2.12508 -0.253648,-2.37286 -0.166088,-0.24778 -2.109778,-0.83818 -2.098503,-1.13626 0.01128,-0.29809 1.994012,-0.73996 2.178343,-0.97449 0.184331,-0.23453 0.145197,-2.26553 0.432176,-2.34692 0.286979,-0.0814 1.319927,1.66776 1.599938,1.77059 0.280011,0.10284 2.199514,-0.56199 2.365604,-0.31421 0.16609,0.24778 -1.178254,1.77069 -1.189529,2.06877 -0.01127,0.29809 1.214179,1.9182 1.029847,2.15273 z" />
  </g>
</svg>
