<?xml version="1.0" encoding="UTF-8" standalone="no"?>
<!DOCTYPE svg PUBLIC "-//W3C//DTD SVG 1.0//EN"
"http://www.w3.org/TR/2001/REC-SVG-20010904/DTD/svg10.dtd">
<!--
     What?? someone is reading a .svg file??

     00 10 20 30 40 50 60 70 80 90 100

     01 11 21 31 41 51 61 71 81 91 1001
             _-__
     02 12(22)32(42)52 62 72 82 92 1002
          |   __   \
     03 13 23(33)43 53 63 73 83 93 1003
           |  `'      \
     04 14(24)34 44 54(64)74 84 94 1004
             \        /  \
     05 15 25 35 45 55 65 75 85 95 1005
                \   /       \
     06 16 26 36(46)56 66 76(86)96 1006
                   \      __  |
     07 17 27 37 47 57 67(77)87 97 1007
                      \   `'   |
     08 18 28 38 48 58(68)78(88)98 1008
                         `-,'
     09 19 29 39 49 59 69 79 89 99 1009

     00 10 20 30 40 50 60 70 80 90 1010 
-->

<svg
   xmlns="http://www.w3.org/2000/svg"
   width="100"
   height="100" >
     <path fill="#eeec" d="
      M 50 10
      L 90 50
      A 20,20 0 0 1 50,90
      L 10 50
      A 20,20 0 0 1 50,10" />
     <path stroke-width="5" id="fglambda" stroke="#669" d="
      M 20 40
      A 10,10 0 0 1 40,20
      L 80 60
      A 10,10 0 0 1 60 80
      M 40 60
      L 60 40" fill="#7772" />
     <path stroke-width="5" id="bg" stroke="#225" fill="#0000" d="
      M 80 60
      A 10,10 0 0 1 60 80
      L 20 40" />
     <circle cx="30" cy="30" r="5" stroke-width="5"
             stroke="#336" fill="#FFF5"/>
     <circle cx="70" cy="70" r="5" stroke-width="5"
             stroke="#336" fill="#FFF5" />
     <!-- <path stroke-width="5" id="n" stroke="#336" fill="#0000" d="
      M 30 40
      L 40 30
      L 40 50
      L 50 40" /> -->
</svg>
