<?xml version="1.0" encoding="UTF-8" standalone="no"?>

<svg
   width="48.030659mm"
   height="46.717056mm"
   viewBox="0 0 48.030659 46.717056"
   version="1.1"
   id="svg5"
   xmlns:inkscape="http://www.inkscape.org/namespaces/inkscape"
   xmlns:sodipodi="http://sodipodi.sourceforge.net/DTD/sodipodi-0.dtd"
   xmlns:xlink="http://www.w3.org/1999/xlink"
   xmlns="http://www.w3.org/2000/svg"
   xmlns:svg="http://www.w3.org/2000/svg">
  <defs
     id="defs2">
    <linearGradient
       id="linearGradient7604">
      <stop
         style="stop-color:#aaecff;stop-opacity:1"
         offset="0"
         id="stop7600" />
      <stop
         style="stop-color:#e5ffff;stop-opacity:1"
         offset="1"
         id="stop7602" />
    </linearGradient>
    <linearGradient
       id="linearGradient7560">
      <stop
         style="stop-color:#8de6ff;stop-opacity:1"
         offset="0"
         id="stop7556" />
      <stop
         style="stop-color:#aafeff;stop-opacity:1"
         offset="1"
         id="stop7558" />
    </linearGradient>
    <linearGradient
       id="linearGradient7199">
      <stop
         style="stop-color:#ffe88d;stop-opacity:1"
         offset="0"
         id="stop7195" />
      <stop
         style="stop-color:#fff8db;stop-opacity:1"
         offset="1"
         id="stop7197" />
    </linearGradient>
    <linearGradient
       id="linearGradient7193">
      <stop
         style="stop-color:#ffe680;stop-opacity:1"
         offset="0"
         id="stop7189" />
      <stop
         style="stop-color:#ffeeaa;stop-opacity:1"
         offset="1"
         id="stop7191" />
    </linearGradient>
    <linearGradient
       id="linearGradient6454">
      <stop
         style="stop-color:#ffafaf;stop-opacity:1"
         offset="0"
         id="stop6450" />
      <stop
         style="stop-color:#ffd1d1;stop-opacity:1"
         offset="1"
         id="stop6452" />
    </linearGradient>
    <linearGradient
       id="linearGradient6130">
      <stop
         style="stop-color:#ff8d8d;stop-opacity:1"
         offset="0"
         id="stop6126" />
      <stop
         style="stop-color:#ffbfbf;stop-opacity:1"
         offset="1"
         id="stop6128" />
    </linearGradient>
    <linearGradient
       id="linearGradient2678">
      <stop
         style="stop-color:#cc5100;stop-opacity:1"
         offset="0"
         id="stop2674" />
      <stop
         style="stop-color:#893700;stop-opacity:1"
         offset="1"
         id="stop2676" />
    </linearGradient>
    <linearGradient
       xlink:href="#linearGradient2678"
       id="linearGradient8623"
       gradientUnits="userSpaceOnUse"
       gradientTransform="translate(456.99854)"
       x1="-237.21243"
       y1="-81.365936"
       x2="-219.7563"
       y2="-81.365936" />
    <linearGradient
       xlink:href="#linearGradient2678"
       id="linearGradient8625"
       gradientUnits="userSpaceOnUse"
       gradientTransform="translate(456.99854)"
       x1="-237.25293"
       y1="-75.446152"
       x2="-219.74561"
       y2="-75.446152" />
    <linearGradient
       xlink:href="#linearGradient6130"
       id="linearGradient8627"
       gradientUnits="userSpaceOnUse"
       x1="56.487949"
       y1="250.44582"
       x2="57.101589"
       y2="232.98958" />
    <radialGradient
       xlink:href="#linearGradient6454"
       id="radialGradient8629"
       gradientUnits="userSpaceOnUse"
       gradientTransform="matrix(0.99991523,-0.0130201,0.06425695,4.9347928,-15.631878,-952.45247)"
       cx="64.202187"
       cy="243.40846"
       fx="64.202187"
       fy="243.40846"
       r="2.4126465" />
    <linearGradient
       xlink:href="#linearGradient7193"
       id="linearGradient8631"
       gradientUnits="userSpaceOnUse"
       x1="56.487949"
       y1="250.44582"
       x2="57.101589"
       y2="232.98958" />
    <radialGradient
       xlink:href="#linearGradient7199"
       id="radialGradient8633"
       gradientUnits="userSpaceOnUse"
       gradientTransform="matrix(0.99991523,-0.0130201,0.06425695,4.9347928,-15.631878,-952.45247)"
       cx="64.202187"
       cy="243.40846"
       fx="64.202187"
       fy="243.40846"
       r="2.4126465" />
    <linearGradient
       xlink:href="#linearGradient7560"
       id="linearGradient8635"
       gradientUnits="userSpaceOnUse"
       x1="56.487949"
       y1="250.44582"
       x2="57.101589"
       y2="232.98958" />
    <radialGradient
       xlink:href="#linearGradient7604"
       id="radialGradient8637"
       gradientUnits="userSpaceOnUse"
       gradientTransform="matrix(0.99991523,-0.0130201,0.06425695,4.9347928,-15.631878,-952.45247)"
       cx="64.202187"
       cy="243.40846"
       fx="64.202187"
       fy="243.40846"
       r="2.4126465" />
    <linearGradient
       xlink:href="#linearGradient2678"
       id="linearGradient8639"
       gradientUnits="userSpaceOnUse"
       gradientTransform="matrix(0.50866564,0,0,0.16423498,68.62184,170.01798)"
       x1="89.489288"
       y1="186.81186"
       x2="89.536766"
       y2="202.05115" />
    <radialGradient
       xlink:href="#linearGradient2678"
       id="radialGradient8641"
       gradientUnits="userSpaceOnUse"
       gradientTransform="matrix(0.99777918,0.06660864,-0.0740701,1.1095498,15.315642,-32.199426)"
       cx="140.75084"
       cy="198.0123"
       fx="140.75084"
       fy="198.0123"
       r="7.6690698" />
  </defs>
  <g
     id="layer2"
     style="display:inline"
     transform="translate(-33.560706,-115.07545)">
    <g
       id="g8658"
       transform="rotate(-44.178619,57.942239,138.08399)">
      <g
         id="g8597"
         transform="translate(-60.827725,-63.894486)">
        <path
           style="color:#000000;fill:url(#linearGradient8639);stroke-width:0.118505;-inkscape-stroke:none"
           d="m 86.00884,200.70682 h 56.60434 v 2.49503 H 86.00884 c -0.446846,-0.83168 -0.14153,-1.66335 0,-2.49503 z"
           id="path8593"
           sodipodi:nodetypes="ccccc" />
        <path
           id="path8595"
           style="fill:url(#radialGradient8641);fill-opacity:1;stroke-width:0.410001"
           d="m 136.95884,210.5013 5.40704,-8.84933 -5.40229,-8.24462 7.40072,4.27554 7.40071,4.27555 -7.40309,4.27143 z"
           sodipodi:nodetypes="ccccccc" />
      </g>
      <g
         id="g8603"
         transform="matrix(0.92281465,0,0,1,-14.600825,-103.60421)">
        <path
           id="path8599"
           style="fill:url(#linearGradient8635);fill-opacity:1;stroke-width:0.320654"
           d="m 49.73177,241.73265 c 1e-5,0.69644 -0.10377,1.4055 0.13633,2.0049 0.4372,1.09147 0.40233,2.29383 0.57517,3.30287 0.36953,2.15733 1.63672,3.44595 2.76374,3.4457 0.1311,-0.0168 0.35078,-0.0342 0.41703,-0.0403 h 0.33984 c 0.40426,0.0506 0.80852,0.0853 1.21278,0 0.4371,-0.0789 0.87419,-0.0931 1.31129,0 0.55946,0.0173 1.20419,0.15177 1.64073,0 0.6438,-0.061 1.2876,-0.0596 1.9314,0 0.7041,0.002 1.11751,0.14015 1.8216,0.0323 0.81907,-0.0811 1.63814,-0.0356 2.45721,0 l -0.01,-17.49934 c -0.48064,0 -0.90431,-0.0315 -1.25249,0.0585 -0.35219,0.091 -0.73944,0.0174 -1.22058,-0.0477 -0.3994,-0.0669 -0.80012,-0.11934 -1.21645,0 -0.53807,0.1269 -1.16576,0.0566 -1.78724,0 -0.58351,-0.0773 -1.16703,-0.1424 -1.75054,0 -0.48145,0.0625 -0.9735,0.10722 -1.55675,0 -0.41327,-0.0934 -0.85728,-0.11294 -1.35651,0 -0.14544,0.10667 -0.35094,0.0632 -0.56431,0 -1.47183,0.36657 -2.88564,1.63285 -2.96238,3.35734 -0.0355,0.79783 -0.53627,1.88305 -0.68744,2.82074 -0.14959,0.92792 -0.20936,1.82279 -0.24245,2.56506 z"
           sodipodi:nodetypes="cssccccccccccscccccccsscc" />
        <path
           id="path8601"
           style="fill:url(#radialGradient8637);fill-opacity:1;stroke-width:0.2714"
           d="m 64.32891,232.97876 c -0.84503,0 -1.3769,1.94156 -1.98332,4.31991 -0.32509,1.27499 -0.75062,2.92089 -0.31638,4.43375 0.33111,1.15357 0.14947,2.45733 0.19676,3.5482 0.1251,2.88578 1.16467,5.20547 2.10294,5.20546 0.93507,-10e-6 1.55591,-2.15164 2.09927,-5.17422 0.15462,-0.86017 0.0896,-2.30906 0.20042,-3.57944 0.20671,-2.36928 -0.42269,-4.31399 -0.57213,-5.7781 -0.19013,-1.86266 -1.03919,-2.97555 -1.72756,-2.97556 z"
           sodipodi:nodetypes="sssssssss" />
      </g>
      <g
         id="g8609"
         transform="matrix(1,0,0,0.95305435,-6.0145206,-91.883722)">
        <path
           id="path8605"
           style="fill:url(#linearGradient8631);fill-opacity:1;stroke-width:0.320654"
           d="m 49.73177,241.73265 c 1e-5,0.69644 -0.10377,1.4055 0.13633,2.0049 0.4372,1.09147 0.40233,2.29383 0.57517,3.30287 0.36953,2.15733 1.63672,3.44595 2.76374,3.4457 0.1311,-0.0168 0.35078,-0.0342 0.41703,-0.0403 h 0.33984 c 0.40426,0.0506 0.80852,0.0853 1.21278,0 0.4371,-0.0789 0.87419,-0.0931 1.31129,0 0.55946,0.0173 1.20419,0.15177 1.64073,0 0.6438,-0.061 1.2876,-0.0596 1.9314,0 0.7041,0.002 1.11751,0.14015 1.8216,0.0323 0.81907,-0.0811 1.63814,-0.0356 2.45721,0 l -0.01,-17.49934 c -0.48064,0 -0.90431,-0.0315 -1.25249,0.0585 -0.35219,0.091 -0.73944,0.0174 -1.22058,-0.0477 -0.3994,-0.0669 -0.80012,-0.11934 -1.21645,0 -0.53807,0.1269 -1.16576,0.0566 -1.78724,0 -0.58351,-0.0773 -1.16703,-0.1424 -1.75054,0 -0.48145,0.0625 -0.9735,0.10722 -1.55675,0 -0.41327,-0.0934 -0.85728,-0.11294 -1.35651,0 -0.14544,0.10667 -0.35094,0.0632 -0.56431,0 -1.47183,0.36657 -2.88564,1.63285 -2.96238,3.35734 -0.0355,0.79783 -0.53627,1.88305 -0.68744,2.82074 -0.14959,0.92792 -0.20936,1.82279 -0.24245,2.56506 z"
           sodipodi:nodetypes="cssccccccccccscccccccsscc" />
        <path
           id="path8607"
           style="fill:url(#radialGradient8633);fill-opacity:1;stroke-width:0.2714"
           d="m 64.32891,232.97876 c -0.84503,0 -1.3769,1.94156 -1.98332,4.31991 -0.32509,1.27499 -0.75062,2.92089 -0.31638,4.43375 0.33111,1.15357 0.14947,2.45733 0.19676,3.5482 0.1251,2.88578 1.16467,5.20547 2.10294,5.20546 0.93507,-10e-6 1.55591,-2.15164 2.09927,-5.17422 0.15462,-0.86017 0.0896,-2.30906 0.20042,-3.57944 0.20671,-2.36928 -0.42269,-4.31399 -0.57213,-5.7781 -0.19013,-1.86266 -1.03919,-2.97555 -1.72756,-2.97556 z"
           sodipodi:nodetypes="sssssssss" />
      </g>
      <g
         id="g8615"
         transform="translate(7.7631944,-103.65251)">
        <path
           id="path8611"
           style="fill:url(#linearGradient8627);fill-opacity:1;stroke-width:0.320654"
           d="m 49.73177,241.73265 c 1e-5,0.69644 -0.10377,1.4055 0.13633,2.0049 0.4372,1.09147 0.40233,2.29383 0.57517,3.30287 0.36953,2.15733 1.63672,3.44595 2.76374,3.4457 0.1311,-0.0168 0.35078,-0.0342 0.41703,-0.0403 h 0.33984 c 0.40426,0.0506 0.80852,0.0853 1.21278,0 0.4371,-0.0789 0.87419,-0.0931 1.31129,0 0.55946,0.0173 1.20419,0.15177 1.64073,0 0.6438,-0.061 1.2876,-0.0596 1.9314,0 0.7041,0.002 1.11751,0.14015 1.8216,0.0323 0.81907,-0.0811 1.63814,-0.0356 2.45721,0 l -0.01,-17.49934 c -0.48064,0 -0.90431,-0.0315 -1.25249,0.0585 -0.35219,0.091 -0.73944,0.0174 -1.22058,-0.0477 -0.3994,-0.0669 -0.80012,-0.11934 -1.21645,0 -0.53807,0.1269 -1.16576,0.0566 -1.78724,0 -0.58351,-0.0773 -1.16703,-0.1424 -1.75054,0 -0.48145,0.0625 -0.9735,0.10722 -1.55675,0 -0.41327,-0.0934 -0.85728,-0.11294 -1.35651,0 -0.14544,0.10667 -0.35094,0.0632 -0.56431,0 -1.47183,0.36657 -2.88564,1.63285 -2.96238,3.35734 -0.0355,0.79783 -0.53627,1.88305 -0.68744,2.82074 -0.14959,0.92792 -0.20936,1.82279 -0.24245,2.56506 z"
           sodipodi:nodetypes="cssccccccccccscccccccsscc" />
        <path
           id="path8613"
           style="fill:url(#radialGradient8629);fill-opacity:1;stroke-width:0.2714"
           d="m 64.32891,232.97876 c -0.84503,0 -1.3769,1.94156 -1.98332,4.31991 -0.32509,1.27499 -0.75062,2.92089 -0.31638,4.43375 0.33111,1.15357 0.14947,2.45733 0.19676,3.5482 0.1251,2.88578 1.16467,5.20547 2.10294,5.20546 0.93507,-10e-6 1.55591,-2.15164 2.09927,-5.17422 0.15462,-0.86017 0.0896,-2.30906 0.20042,-3.57944 0.20671,-2.36928 -0.42269,-4.31399 -0.57213,-5.7781 -0.19013,-1.86266 -1.03919,-2.97555 -1.72756,-2.97556 z"
           sodipodi:nodetypes="sssssssss" />
      </g>
      <g
         id="g8621"
         transform="matrix(0.21667009,0,0,0.14251183,56.136971,105.49599)">
        <rect
           style="fill:url(#linearGradient8623);fill-opacity:1;stroke-width:0.320655"
           id="rect8617"
           width="17.456133"
           height="11.00568"
           x="219.7861"
           y="-86.868774"
           transform="rotate(90)" />
        <ellipse
           style="fill:url(#linearGradient8625);fill-opacity:1;stroke-width:0.333617"
           id="ellipse8619"
           cx="228.49927"
           cy="-75.446152"
           rx="8.7536592"
           ry="3.474936"
           transform="rotate(90)" />
      </g>
    </g>
  </g>
</svg>
