<svg height="512" viewBox="0 0 59 59" width="512" xmlns="http://www.w3.org/2000/svg"><g id="025---Slug" fill="none"><path id="Shape" d="m59 54v5h-38c-7.7319865 0-14-6.2680135-14-14v-20c0-6.0751322 4.9248678-11 11-11s11 4.9248678 11 11v15h16c3.7130309 0 7.2739856 1.4749958 9.8994949 4.1005051s4.1005051 6.186464 4.1005051 9.8994949z" fill="#14a085"/><path id="Shape" d="m59 54v3h-38c-7.7319865 0-14-6.2680135-14-14v-18c0-6.0751322 4.9248678-11 11-11s11 4.9248678 11 11v15h16c3.7130309 0 7.2739856 1.4749958 9.8994949 4.1005051s4.1005051 6.186464 4.1005051 9.8994949z" fill="#26b99a"/><path id="Shape" d="m11 30c-.5522847 0-1-.4477153-1-1v-1c0-.5522847.4477153-1 1-1s1 .4477153 1 1v1c0 .5522847-.4477153 1-1 1z" fill="#81ccb8"/><path id="Shape" d="m11 47c-.5522847 0-1-.4477153-1-1v-13c0-.5522847.4477153-1 1-1s1 .4477153 1 1v13c0 .5522847-.4477153 1-1 1z" fill="#81ccb8"/><g fill="#14a085"><path id="Shape" d="m13 21c-.390571.0009665-.7459609-.2255458-.91-.58l-3.49-7.55c-.15541053-.3251117-.12557076-.7084378.07827895-1.0055831s.55073975-.4629664.91-.435.67631055.2454714.83172105.5705831l3.49 7.55c.1576393.3127099.1402121.6850977-.045943.9817185s-.5139113.4742505-.864057.4682815z"/><path id="Shape" d="m23 21c-.3416485.0008464-.6600856-.1727873-.8444255-.4604386-.1843399-.2876512-.2090684-.6495066-.0655745-.9595614l3.49-7.58c.1500515-.3251117.4621499-.5454758.8187307-.5780831.3565807-.0326074.7034708.1274957.91.42s.2413209.6729714.0912693.9980831l-3.49 7.55c-.1550647.3661828-.5123616.6056895-.91.61z"/><circle id="Oval" cx="7" cy="7" r="7"/><circle id="Oval" cx="29" cy="7" r="7"/></g><circle id="Oval" cx="7" cy="7" fill="#fff" r="6"/><circle id="Oval" cx="29" cy="7" fill="#fff" r="6"/><path id="Shape" d="m8 9c-1.1045695 0-2-.8954305-2-2s.8954305-2 2-2 2 .8954305 2 2c0 .53043298-.21071368 1.03914081-.58578644 1.41421356-.37507275.37507276-.88378058.58578644-1.41421356.58578644z" fill="#35495e"/><path id="Shape" d="m6 7c-1.1045695 0-2-.8954305-2-2s.8954305-2 2-2 2 .8954305 2 2c0 .53043298-.21071368 1.03914081-.58578644 1.41421356-.37507275.37507276-.88378058.58578644-1.41421356.58578644z" fill="#fff"/><path id="Shape" d="m28 9c-1.1045695 0-2-.8954305-2-2s.8954305-2 2-2 2 .8954305 2 2c0 .53043298-.2107137 1.03914081-.5857864 1.41421356-.3750728.37507276-.8837806.58578644-1.4142136.58578644z" fill="#35495e"/><path id="Shape" d="m26 7c-1.1045695 0-2-.8954305-2-2s.8954305-2 2-2 2 .8954305 2 2c0 .53043298-.2107137 1.03914081-.5857864 1.41421356-.3750728.37507276-.8837806.58578644-1.4142136.58578644z" fill="#fff"/><path id="Shape" d="m38 50c0 .5522847-.4477153 1-1 1h-1c-3.8659932 0-7-3.1340068-7-7v-4h2v4c0 1.3260824.5267842 2.597852 1.4644661 3.5355339s2.2094515 1.4644661 3.5355339 1.4644661h1c.5522847 0 1 .4477153 1 1z" fill="#14a085"/></g></svg>