<?xml version="1.0" encoding="UTF-8" standalone="no"?>
<!-- Created with Inkscape (http://www.inkscape.org/) -->

<svg
   width="210mm"
   height="297mm"
   viewBox="0 0 210 297"
   version="1.1"
   id="svg5"
   inkscape:version="1.1 (c68e22c387, 2021-05-23)"
   sodipodi:docname="okta-ottis.svg"
   xmlns:inkscape="http://www.inkscape.org/namespaces/inkscape"
   xmlns:sodipodi="http://sodipodi.sourceforge.net/DTD/sodipodi-0.dtd"
   xmlns="http://www.w3.org/2000/svg"
   xmlns:svg="http://www.w3.org/2000/svg">
  <sodipodi:namedview
     id="namedview7"
     pagecolor="#ffffff"
     bordercolor="#999999"
     borderopacity="1"
     inkscape:pageshadow="0"
     inkscape:pageopacity="0"
     inkscape:pagecheckerboard="0"
     inkscape:document-units="mm"
     showgrid="false"
     inkscape:zoom="0.38112599"
     inkscape:cx="165.29967"
     inkscape:cy="696.62003"
     inkscape:window-width="1900"
     inkscape:window-height="1035"
     inkscape:window-x="7"
     inkscape:window-y="32"
     inkscape:window-maximized="0"
     inkscape:current-layer="layer1" />
  <defs
     id="defs2" />
  <g
     inkscape:label="Layer 1"
     inkscape:groupmode="layer"
     id="layer1">
    <path
       style="fill:#d1b2ff;stroke:#000000;stroke-width:1.5;stroke-linecap:butt;stroke-linejoin:miter;stroke-opacity:1;stroke-miterlimit:4;stroke-dasharray:none;fill-opacity:1"
       d="m 94.276327,76.447313 c -3.319285,-1.792706 -6.387547,-2.975795 -10.083263,-1.589902 -1.535157,0.575683 -3.419179,1.58895 -5.003609,1.787003 -0.732579,0.09157 -4.720098,0.03878 -5.361012,0.3574 -2.043173,1.015724 -4.450892,1.979683 -6.416918,3.208448 -0.505124,0.315704 -0.896821,0.805812 -1.429602,1.072203 -0.439343,0.21967 -0.990261,0.137729 -1.429604,0.357399 -0.301385,0.150693 -0.445233,0.512628 -0.714801,0.714804 -1.643923,1.232942 0.375361,-0.726776 -1.787004,0.714801 -0.913887,0.609258 -1.72515,1.367747 -2.501805,2.144403 -3.242704,3.242704 -6.24282,10.628476 -6.790613,15.010828 -0.261057,2.08846 0.01974,4.40715 0.357402,6.43322 0.464666,2.788 4.006104,7.00934 5.71841,9.29241 0.468432,0.62458 0.354407,1.06622 0.714801,1.78701 1.647005,3.29401 4.252214,6.99282 7.169981,9.32703 0.586208,0.46897 1.477444,0.65819 2.144405,1.07221 7.326972,4.54818 11.708024,6.10665 19.866279,6.10665 1.010751,0 2.51269,0.27567 3.477504,0 0.512281,-0.14636 0.917318,-0.56844 1.429602,-0.71481 2.683832,-0.76682 5.980059,0.67798 8.69199,0 0.3269,-0.0817 0.3879,-0.63307 0.7148,-0.7148 0.34673,-0.0867 0.72333,0.0776 1.0722,0 2.36815,-0.52686 4.58685,-1.56026 6.63283,-2.56098 0.52506,-0.25682 0.64189,-0.98761 1.05696,-1.39913 0.70703,-0.70101 1.56761,-0.92182 2.1444,-1.78701 0.41534,-0.623 2.65798,-5.11473 2.85921,-5.71841 0.11302,-0.33906 -0.11302,-0.73314 0,-1.0722 0.30373,-0.9112 1.05125,-1.61898 1.4296,-2.50181 0.92976,-2.16943 1.04553,-4.56619 1.787,-6.79061 0.20288,-0.60863 0.60934,-1.15418 0.71481,-1.787 0.44187,-2.65125 -0.52688,-5.58584 0,-8.22022 0.0739,-0.36942 0.3574,-0.69547 0.3574,-1.072201 0,-0.266393 -0.30516,-0.453586 -0.3574,-0.714804 -0.87188,-4.359386 -1.83905,-5.260366 -4.28881,-8.935016 -1.44654,-2.169806 1.02884,1.119068 -0.71481,-1.787004 -0.17336,-0.288941 -0.5641,-0.413414 -0.7148,-0.714801 -0.21967,-0.439343 -0.11369,-1.003122 -0.3574,-1.429604 -0.25076,-0.438846 -0.82143,-0.633357 -1.0722,-1.072203 -0.7286,-1.275046 -0.4747,-1.943402 -1.4296,-3.216606 -0.3275,-0.436671 -2.22195,-1.30906 -2.85921,-1.787004 -0.54882,-0.411614 -1.17754,-1.124873 -1.787,-1.429601 -0.74875,-0.374375 -5.00966,-1.251911 -6.07581,-1.429602 -0.39712,-0.06619 -1.489173,0.09928 -1.787006,0 -0.11302,-0.03767 0,-0.238268 0,-0.357402 -0.238268,0 -0.476533,0 -0.714801,0 -0.37442,0 -2.810354,0.257564 -2.996023,0 -0.726337,-1.007594 3.704339,0.198649 -1.666483,-0.583089 z"
       id="path859"
       inkscape:export-filename="/home/mike/proiektuak/okta-web/okta-ottis.png"
       inkscape:export-xdpi="96"
       inkscape:export-ydpi="96" />
    <path
       style="fill:none;stroke:#000000;stroke-width:1.5;stroke-linecap:butt;stroke-linejoin:miter;stroke-opacity:1;stroke-miterlimit:4;stroke-dasharray:none"
       d="m 70.555513,129.74741 c -0.581956,5.34601 0.04107,10.87359 -0.714801,16.16468 -0.398446,2.78912 0.229076,5.80493 0,8.60421 -0.187198,2.28752 -0.965239,5.92137 -0.357402,8.34571 0.108257,0.43178 1.215465,5.7342 0.714801,6.26265 -0.445878,0.47063 -0.334406,-0.5821 -0.334406,0.33441 0,0.80732 -4.190969,1.55164 -5.60727,1.0722 -2.252866,-0.76262 0.928304,0.0522 -0.345511,-0.68618 -0.16949,-0.0982 -0.41977,0.10086 -0.587714,0 -0.100859,-0.0606 0.05288,-0.24785 0,-0.35295 -0.548481,-1.09013 -0.11425,0.0824 -0.698093,-0.3574 -0.216416,-0.16301 -0.3533,-1.91112 -0.3533,-2.28986"
       id="path1150"
       inkscape:export-filename="/home/mike/proiektuak/okta-web/okta-ottis.png"
       inkscape:export-xdpi="96"
       inkscape:export-ydpi="96" />
    <path
       style="fill:none;stroke:#000000;stroke-width:1.5;stroke-linecap:butt;stroke-linejoin:miter;stroke-opacity:1;stroke-miterlimit:4;stroke-dasharray:none"
       d="m 79.90528,133.74585 c -0.113229,2.131 1.361948,4.07688 1.60392,6.05016 0.450381,3.67288 -2.51137,8.86468 -1.478095,11.94079 1.433041,4.26625 1.271984,9.83446 0.714801,14.29193 -0.200065,1.60051 0.315494,3.34257 0,4.92004 -0.176321,0.8816 -1.048393,3.67918 -1.748219,3.91245 -0.62112,0.20704 -4.510722,1.82809 -4.510722,0.46043"
       id="path1152"
       inkscape:export-filename="/home/mike/proiektuak/okta-web/okta-ottis.png"
       inkscape:export-xdpi="96"
       inkscape:export-ydpi="96" />
    <path
       style="fill:none;stroke:#000000;stroke-width:1.5;stroke-linecap:butt;stroke-linejoin:miter;stroke-opacity:1;stroke-miterlimit:4;stroke-dasharray:none"
       d="m 89.613802,134.76426 c -0.501398,4.15934 -0.320651,8.4135 0.486233,12.44793 0.264261,1.3213 -0.425757,3.00823 0,4.28063 0.306086,0.91474 0.582073,1.93009 0.714801,2.8592 0.257778,1.80444 0,3.8858 0,5.71841 0,1.33091 0.257344,2.97853 0,4.25465 -1.051613,5.21475 -0.672028,-1.38225 -1.087231,5.4061 -0.120639,1.97242 0.0095,3.65128 -0.357399,5.48594 -0.206195,1.03096 0.206192,2.18564 0,3.21661 -0.359011,1.79504 -1.410031,3.47614 -1.787004,5.36101 -0.353711,1.76855 -1.573898,2.00233 -2.859206,2.8592 -2.276221,1.51748 -3.65746,1.79954 -5.344063,0.11293 -0.251758,-0.25175 0.111742,-0.73007 0,-1.06812 -0.28589,-0.86492 -1.044127,-0.36946 -1.044127,-1.13413"
       id="path1154"
       inkscape:export-filename="/home/mike/proiektuak/okta-web/okta-ottis.png"
       inkscape:export-xdpi="96"
       inkscape:export-ydpi="96" />
    <path
       style="fill:none;stroke:#000000;stroke-width:1.5;stroke-linecap:butt;stroke-linejoin:miter;stroke-opacity:1;stroke-miterlimit:4;stroke-dasharray:none"
       d="m 97.738188,134.28106 c -0.206989,3.98932 -0.720804,8.25357 -0.31796,12.28203 0.348633,3.48633 1.038775,6.84717 1.429604,10.36462 0.165886,1.49299 0.555908,2.73961 0.357399,4.28881 0.366335,2.47591 -1.162563,4.55006 -1.495327,6.86991 -0.128751,0.89758 0.07168,1.81638 0,2.72031 -0.126653,1.59728 -0.690639,3.43505 -0.357401,5.07972 0.145896,0.72007 0.798308,1.45967 1.072202,2.14441 0.381807,0.95451 0.903412,2.20386 1.072203,3.2166 0.05876,0.35254 -0.113022,0.73314 0,1.0722 0.317151,0.95146 1.172462,1.83067 1.429602,2.85921 0.0578,0.23115 -0.10656,0.50169 0,0.7148 0.3623,0.72461 1.57284,1.22931 1.75576,1.77808 0.2433,0.72989 0.39017,1.10497 1.07221,1.78701 0.0842,0.0842 0.23827,0 0.3574,0 0.23557,0.11778 0.56138,0.13371 0.70671,0.35336 1.41339,2.1363 -0.94497,0.0636 0.3574,0.7148 0.11499,0.0575 0.54874,0.59996 0.67577,0.67578 0.62357,0.37215 3.5741,0.0835 3.89053,-0.21888 0.304,-0.29054 0,-0.84102 0,-1.26153"
       id="path1156"
       inkscape:export-filename="/home/mike/proiektuak/okta-web/okta-ottis.png"
       inkscape:export-xdpi="96"
       inkscape:export-ydpi="96" />
    <path
       style="fill:none;stroke:#000000;stroke-width:1.5;stroke-linecap:butt;stroke-linejoin:miter;stroke-opacity:1;stroke-miterlimit:4;stroke-dasharray:none"
       d="m 105.85134,131.35686 c 0.11914,0.74452 0.28411,1.48314 0.3574,2.23356 0.15568,1.59389 0.40865,3.10732 0.7148,4.63808 0.2189,1.09448 1.17977,3.26938 1.07221,4.26726 -0.13268,1.23083 -0.64874,2.39299 -0.86238,3.61238 -0.86222,4.92138 -1.0828,10.1545 -0.37677,15.09671 0.37716,2.64014 -0.51157,5.86546 0.7148,8.21618 0.29575,0.56689 0.76845,1.15834 1.06767,1.75679 0.10656,0.21311 -0.16848,0.54632 0,0.7148 0.16848,0.16848 0.51655,-0.13217 0.7148,0 0.59941,0.3996 0.73665,1.62469 1.4296,2.1444 0.537,0.40275 1.78336,0.42597 2.14441,0.71481 0.46514,0.37211 0.651,1.0084 1.0722,1.4296 0.43578,0.43578 0.99382,0.63642 1.4296,1.0722 0.18256,0.18256 0.17193,0.50755 0.3574,0.68714 0.12457,0.12061 0.80304,-0.14004 0.89878,0 0.0589,0.0862 0.39466,0.72613 0.78121,0.35291 0.76529,-0.73891 -0.7148,-0.79213 -0.7148,-1.20435"
       id="path1158"
       inkscape:export-filename="/home/mike/proiektuak/okta-web/okta-ottis.png"
       inkscape:export-xdpi="96"
       inkscape:export-ydpi="96" />
    <path
       style="fill:none;stroke:#000000;stroke-width:1.5;stroke-linecap:butt;stroke-linejoin:miter;stroke-opacity:1;stroke-miterlimit:4;stroke-dasharray:none"
       d="m 105.85134,131.35686 c 2.32344,-0.36356 4.61862,-1.0817 6.97032,-1.09069 0.18158,-7.9e-4 -0.1679,8.44475 0,9.28424 0.24423,1.22114 0.18227,2.34808 0.3574,3.57401 0.19127,1.33886 0.81022,2.62151 1.0722,3.9314 0.38608,1.93039 1.62097,3.52897 2.14441,5.36101 0.34299,1.20048 0.46083,2.71853 1.0722,3.92735 0.67219,1.32907 0.9439,2.81868 1.4296,4.27579 0.47998,1.43993 1.84258,2.61295 2.50181,3.93141 0.10655,0.21311 -0.10656,0.50169 0,0.7148 0.55234,1.10468 2.01321,2.72802 2.8592,3.57401 0.46038,0.46038 0.76226,0.84418 1.41691,1.06585 0.20034,0.0678 0.55324,-0.19526 0.63452,0 0.0904,0.21722 -0.10628,0.49595 0,0.70586 0.0979,0.19344 1.17334,-0.12201 1.41735,0 1.31869,0.65934 0.71853,1.06398 2.3014,1.06398 0.20254,0 -0.45397,-0.12224 -0.52046,-0.31356 -0.28983,-0.83393 0.38318,-0.7148 -0.3574,-0.7148"
       id="path1160"
       inkscape:export-filename="/home/mike/proiektuak/okta-web/okta-ottis.png"
       inkscape:export-xdpi="96"
       inkscape:export-ydpi="96" />
    <path
       style="fill:none;stroke:#000000;stroke-width:1.5;stroke-linecap:butt;stroke-linejoin:miter;stroke-opacity:1;stroke-miterlimit:4;stroke-dasharray:none"
       d="m 115.46735,124.47819 c 1.00683,5.42449 2.58622,10.47147 5.00361,15.30626 0.9472,1.8944 2.52456,3.52448 3.57401,5.36101 0.88021,1.54038 1.33001,3.18147 2.5018,4.64621 0.72634,0.90793 1.79606,1.56354 2.49361,2.4936 0.15983,0.21312 0.23826,0.47654 0.3574,0.71481 0.23826,0.35739 0.44647,0.73678 0.7148,1.0722 0.46977,0.58722 1.36026,1.01724 1.75825,1.4296 0.0788,0.0817 -0.10236,0.29147 0,0.34052 0.21365,0.10236 0.48587,-0.0747 0.7107,0 0.5149,0.17096 0.79974,0.85605 1.41235,1.06151 1.25901,0.42226 1.45417,-0.0383 2.46845,0.69792"
       id="path1162"
       inkscape:export-filename="/home/mike/proiektuak/okta-web/okta-ottis.png"
       inkscape:export-xdpi="96"
       inkscape:export-ydpi="96" />
    <path
       style="fill:none;stroke:#000000;stroke-width:1.5;stroke-linecap:butt;stroke-linejoin:miter;stroke-opacity:1;stroke-miterlimit:4;stroke-dasharray:none"
       d="m 63.962906,123.52987 c 0.05818,5.66432 2.237891,12.26487 0.70662,18.38995 -0.190365,0.76146 0.247095,1.74915 0,2.49367 -0.301082,0.9072 -0.714761,3.17901 -1.06173,3.87295 -0.0055,0.0109 -0.707954,0.70244 -0.710745,0.71074 -0.528741,1.57296 -1.368452,3.08534 -2.144403,4.63725 -0.342307,0.68461 -0.396494,1.86518 -0.714804,2.5018 -0.150693,0.30139 -0.527888,0.43443 -0.714801,0.7148 -0.131405,0.19711 0.167992,0.54366 0,0.71068 -0.187605,0.18653 -0.52307,0.16678 -0.710678,0.3533 -0.123558,0.12285 -0.232834,0.93523 -0.353299,1.06398 -0.07616,0.0814 -0.284559,-0.0997 -0.334409,0 -0.0997,0.1994 0.104127,0.47169 0,0.66882 -0.110001,0.20825 -0.540038,-0.16656 -0.706557,0 -0.08328,0.0833 0.08329,0.27007 0,0.35336 -1.106741,1.10674 -2.278022,0.78741 -3.561834,1.42559 -0.667906,0.33202 -1.441473,1.18981 -2.136312,1.42142 -0.462481,0.15416 -1.429602,-0.40751 -1.429602,0.28014"
       id="path1357"
       inkscape:export-filename="/home/mike/proiektuak/okta-web/okta-ottis.png"
       inkscape:export-xdpi="96"
       inkscape:export-ydpi="96" />
    <ellipse
       style="fill:#d1b2ff;fill-opacity:1;stroke:#000000;stroke-width:1.5;stroke-linecap:square;stroke-miterlimit:4;stroke-dasharray:none"
       id="ellipse1512"
       cx="77.83181"
       cy="91.904007"
       rx="0.64813781"
       ry="1.2339381"
       inkscape:export-filename="/home/mike/proiektuak/okta-web/okta-ottis.png"
       inkscape:export-xdpi="96"
       inkscape:export-ydpi="96" />
    <ellipse
       style="fill:#d1b2ff;fill-opacity:1;stroke:#000000;stroke-width:1.5;stroke-linecap:square;stroke-miterlimit:4;stroke-dasharray:none"
       id="ellipse1596-6"
       cx="96.527626"
       cy="94.998283"
       rx="0.64813781"
       ry="1.2339381"
       inkscape:export-filename="/home/mike/proiektuak/okta-web/okta-ottis.png"
       inkscape:export-xdpi="96"
       inkscape:export-ydpi="96" />
    <path
       style="fill:#d1b2ff;stroke:#000000;stroke-width:0.765;stroke-linecap:butt;stroke-linejoin:miter;stroke-opacity:1;stroke-miterlimit:4;stroke-dasharray:none;fill-opacity:1"
       d="m 79.983422,99.044798 c 0.194685,0.116597 0.406831,0.208056 0.584054,0.34979 0.101269,0.08099 0.0331,0.276765 0.124793,0.368456 0.262827,0.262816 0.780527,0.579096 1.132909,0.755286 0.387914,0.19395 3.021047,0.47741 3.481462,0.25272 0.417912,-0.20396 -0.169093,-0.0359 0.252722,-0.24682 0.128114,-0.0641 0.373293,-0.0603 0.501113,-0.12492 0.207034,-0.1047 0.04257,-0.14763 0.249835,-0.25126 0.207111,-0.10355 0.494366,-0.301167 0.494366,-0.493564"
       id="path2056"
       inkscape:export-filename="/home/mike/proiektuak/okta-web/okta-ottis.png"
       inkscape:export-xdpi="96"
       inkscape:export-ydpi="96" />
    <path
       style="fill:none;stroke:#000000;stroke-width:0.7;stroke-linecap:butt;stroke-linejoin:miter;stroke-opacity:1;stroke-miterlimit:4;stroke-dasharray:none"
       d="m 44.879402,141.85197 c -0.320979,1.0696 -0.566671,2.01515 -0.566671,3.09223 0,0.92736 1.045041,2.95525 1.968085,3.41942 0.345286,0.17364 0.222522,-0.30444 0.499681,0.24984 0.03724,0.0745 -0.05888,0.19094 0,0.24982 0.502282,0.50227 1.532189,0.49063 2.204794,0.49063 0.30239,0 0.709374,0.22873 0.907166,0 0.673778,-0.77917 1.242711,-1.94656 1.507615,-3.00619 0.183279,-0.73313 0.04795,-1.87609 -0.25272,-2.47368 -0.11217,-0.22294 0.06089,-0.50668 0,-0.74871 -0.01588,-0.0631 -1.160346,-2.61624 -1.21213,-2.66706 -0.143507,-0.14084 -2.604741,-1.43487 -3.062986,-0.90294 -0.112271,0.13033 -0.382654,0.40449 -0.481687,0.44848 -0.142444,0.0633 -0.330084,-0.0734 -0.467588,0 -0.230322,0.12292 -0.942263,1.60831 -1.043559,1.84816 z"
       id="path3611"
       inkscape:export-filename="/home/mike/proiektuak/okta-web/okta-ottis.png"
       inkscape:export-xdpi="96"
       inkscape:export-ydpi="96" />
    <path
       style="fill:none;stroke:#000000;stroke-width:0.7;stroke-linecap:butt;stroke-linejoin:miter;stroke-opacity:1;stroke-miterlimit:4;stroke-dasharray:none"
       d="m 132.99549,144.49726 c 1.28369,-0.0558 1.44776,-0.81752 2.33058,-1.25893 0.1507,-0.0753 0.36526,0.0935 0.50544,0 0.15674,-0.10448 0.11953,-0.37224 0.25273,-0.50544 0.19975,-0.19975 1.07682,-0.32153 1.25783,-0.50255 0.18664,-0.18666 0.45441,-0.70002 0.75239,-1.00513 0.0569,-0.0583 0.58431,-0.13341 0.64712,-0.20327 0.24801,-0.27584 0.37015,-0.95321 0.71537,-1.12825 0.26186,-0.13277 0.70007,-0.0634 0.70007,-0.58978 0,-0.22091 -0.19336,0.40245 -0.2364,0.61912 -0.2194,1.10464 -0.50255,1.38839 -0.50255,2.52434 0,0.98389 0.0753,0.0304 -0.25272,1.01088 -0.34651,1.03556 0.48847,2.77814 0,3.75508 -0.34983,0.69965 -0.25273,2.19675 -0.25273,2.65322"
       id="path3613"
       inkscape:export-filename="/home/mike/proiektuak/okta-web/okta-ottis.png"
       inkscape:export-xdpi="96"
       inkscape:export-ydpi="96" />
  </g>
</svg>
