<?xml version="1.0" standalone="no"?>
<!DOCTYPE svg PUBLIC "-//W3C//DTD SVG 20010904//EN"
 "http://www.w3.org/TR/2001/REC-SVG-20010904/DTD/svg10.dtd">
<svg version="1.0" xmlns="http://www.w3.org/2000/svg"
 width="200.000000pt" height="200.000000pt" viewBox="0 0 200.000000 200.000000"
 preserveAspectRatio="xMidYMid meet">
<metadata>
Created by potrace 1.11, written by Peter Selinger 2001-2013
</metadata>
<g transform="translate(0.000000,200.000000) scale(0.100000,-0.100000)"
fill="#000000" stroke="none">
<path d="M710 1696 l0 -64 60 -4 c74 -5 109 -35 141 -118 49 -130 50 -115 -27
-276 -30 -62 -54 -114 -54 -117 0 -3 -20 -48 -44 -99 -51 -110 -174 -376 -198
-430 -7 -16 0 -18 71 -18 l79 0 21 50 c21 49 63 140 146 315 23 50 60 127 81
173 43 93 41 94 85 -28 51 -142 71 -195 80 -205 5 -5 9 -15 9 -22 0 -7 15 -52
34 -101 19 -48 42 -108 51 -134 l18 -48 78 0 79 0 -16 37 c-8 21 -24 61 -34
88 -10 28 -32 88 -50 135 -18 47 -38 103 -46 125 -8 22 -18 49 -23 60 -15 36
-48 126 -118 320 -8 22 -21 54 -28 70 -7 17 -23 58 -34 92 -42 127 -79 191
-124 217 -47 27 -126 46 -192 46 l-45 0 0 -64z"/>
<path d="M490 1560 c-63 -8 -127 -44 -159 -88 -33 -46 -53 -154 -46 -237 8
-83 -5 -141 -41 -184 -21 -25 -33 -30 -77 -33 l-52 -3 0 -45 0 -45 53 -6 c98
-12 112 -43 112 -245 0 -170 14 -234 62 -283 53 -54 82 -64 210 -69 l118 -5 0
45 0 45 -92 7 c-108 8 -139 24 -165 80 -14 32 -17 62 -16 141 5 178 -26 276
-99 319 -28 17 -30 20 -12 27 32 12 82 72 99 118 10 29 15 80 15 152 0 139 15
180 74 209 31 15 62 20 119 20 l77 0 0 45 0 45 -62 -1 c-35 -1 -88 -5 -118 -9z"/>
<path d="M1330 1526 l0 -46 77 0 c57 0 88 -5 119 -20 59 -29 74 -70 74 -209 0
-72 5 -123 15 -152 17 -46 67 -106 99 -118 18 -7 17 -9 -10 -25 -39 -23 -79
-82 -90 -131 -4 -22 -8 -98 -9 -170 -1 -199 -23 -229 -183 -241 l-92 -7 0 -45
0 -45 119 5 c105 4 124 8 164 31 85 50 108 116 107 310 -1 211 16 247 116 255
l55 5 -3 46 -3 46 -51 5 c-95 10 -119 52 -117 200 3 182 -31 266 -127 316 -35
18 -68 25 -152 30 l-108 7 0 -47z"/>
</g>
</svg>
