<?xml version="1.0" encoding="UTF-8" standalone="no"?>
<svg xmlns:dc="http://purl.org/dc/elements/1.1/" xmlns:cc="http://creativecommons.org/ns#" xmlns:rdf="http://www.w3.org/1999/02/22-rdf-syntax-ns#" xmlns:svg="http://www.w3.org/2000/svg" xmlns="http://www.w3.org/2000/svg" xmlns:sodipodi="http://sodipodi.sourceforge.net/DTD/sodipodi-0.dtd" xmlns:inkscape="http://www.inkscape.org/namespaces/inkscape" width="392" height="392" version="1.1" id="svg889" sodipodi:docname="petal.svg" inkscape:version="0.92.3 (2405546, 2018-03-11)">
  <metadata id="metadata893">
    <rdf:RDF>
      <cc:Work rdf:about="">
        <dc:format>image/svg+xml</dc:format>
        <dc:type rdf:resource="http://purl.org/dc/dcmitype/StillImage"/>
      </cc:Work>
    </rdf:RDF>
  </metadata>
  <sodipodi:namedview pagecolor="#ffffff" bordercolor="#666666" borderopacity="1" objecttolerance="10" gridtolerance="10" guidetolerance="10" inkscape:pageopacity="0" inkscape:pageshadow="2" inkscape:window-width="1920" inkscape:window-height="1171" id="namedview891" showgrid="false" inkscape:zoom="2.4719388" inkscape:cx="196" inkscape:cy="196" inkscape:window-x="0" inkscape:window-y="0" inkscape:window-maximized="1" inkscape:current-layer="svg889"/>
  <defs id="defs881">
    <radialGradient id="pinky" gradientTransform="scale(1.025409,0.97522064)" cx="191.1433" cy="182.09515" fx="191.1433" fy="182.09515" r="178.87991" gradientUnits="userSpaceOnUse">
      <stop stop-color="#b3879d" offset="0%" id="stop874"/>
      <stop stop-color="#d8a4be" offset="50%" id="stop876"/>
      <stop stop-color="#e2bace" offset="90%" id="stop878"/>
    </radialGradient>
  </defs>
  <polygon points="212.458,218.652 203.535,315.763 308.855,351.331 307.573,240.175 212.458,218.652 222.63,187.348 312.23,225.843 378.603,136.669 272.491,103.538 222.63,187.348 196,168 260.299,94.6806 196,4 131.701,94.6807 196,168 169.37,187.348 119.509,103.538 13.3971,136.669 79.77,225.843 169.37,187.348 179.542,218.652 84.4268,240.175 83.1452,351.331 188.465,315.763 179.542,218.652 196,196 " id="polygon883" style="fill:url(#pinky);stroke:#3c2631" transform="translate(-0.40454076,16.181631)"/>
  <circle cx="195.59546" cy="212.18163" r="42" id="circle885" style="fill:#ac7ba8;stroke:#3c2631"/>
  <circle cx="195.59546" cy="212.18163" r="25" id="circle887" style="fill:#665683"/>
</svg>