<?xml version="1.0" encoding="UTF-8"?>
<!-- Svg Vector Icons : http://www.onlinewebfonts.com/icon -->
<!DOCTYPE svg PUBLIC "-//W3C//DTD SVG 1.1//EN" "http://www.w3.org/Graphics/SVG/1.1/DTD/svg11.dtd">
<svg version="1.1" xmlns="http://www.w3.org/2000/svg" xmlns:xlink="http://www.w3.org/1999/xlink" x="0px" y="0px" viewBox="0 0 1000 1000" enable-background="new 0 0 1000 1000" xml:space="preserve">
<metadata> Svg Vector Icons : http://www.onlinewebfonts.com/icon </metadata>
<g><g><path id="reddit" d="M710.7,536.5c2.5,6.5,3.7,13.1,3.7,19.8c0,13.4-4.6,26.3-12.4,36.9c-7.7,10.5-18.5,18.6-31.3,22.2h0c-0.1,0-0.2,0-0.3,0.1c-0.1,0-0.1,0-0.2,0c-6,2-12.1,3-18.2,3c-14.3,0-28.2-5.1-39.4-13.9c-11.1-8.7-19.5-21.2-22.1-36.1h0c0,0,0-0.1,0-0.2c0,0,0-0.1,0-0.1h0c-0.8-3.8-1.3-7.7-1.3-11.4c0-12.9,4.4-25.2,11.6-35.4c7.2-10.1,17.4-18.2,29.3-22.4c0,0,0.1,0,0.1,0c0.1,0,0.1-0.1,0.1-0.1c6.7-2.5,13.8-3.7,20.9-3.7c12.8,0,25.4,3.9,36,11c10.5,7,19,17.2,23.3,29.9c0,0.1,0,0.2,0.1,0.2C710.6,536.4,710.7,536.4,710.7,536.5L710.7,536.5L710.7,536.5z M671.5,694.3c-5-3.3-10.8-5.2-17-5.2c-5,0-10.1,1.4-14.7,4.5l0,0c-43.3,25.8-94.2,40-144.8,40c-37.9,0-75.6-8-109.8-24.8l-0.2-0.1l-0.2-0.1c-5.2-2.1-11-6.6-17.4-10.8c-3.3-2.1-6.7-4.2-10.4-5.7c-3.7-1.6-7.9-2.7-12.3-2.7c-3.7,0-7.5,0.8-11.3,2.5c-0.2,0.1-0.4,0.1-0.6,0.2h0c-6,2.3-10.6,6.4-13.6,11.4c-3.1,5.1-4.7,11-4.7,16.9c0,5.3,1.3,10.6,3.9,15.5c2.5,4.6,6.3,8.6,11.3,11.3c48.8,32.9,106.3,47.9,164,47.8c52,0,104.4-12,151-34l0.2-0.1l0.2-0.1c6.1-3.6,14.3-6.9,22-11.7c3.8-2.4,7.5-5.2,10.7-8.9c3.2-3.6,5.8-8.1,7.2-13.4v0c0.6-2.3,0.9-4.6,0.9-6.9c0-4.3-1.1-8.4-2.8-12.1C680.7,702.1,676.5,697.6,671.5,694.3z M328.7,615.1c0.1,0,0.2,0,0.3,0.1c6.2,2.3,12.7,3.4,19,3.4c15.9,0,31.3-6.5,43-17.1c11.7-10.6,19.6-25.7,19.6-42.8c0-0.4,0-0.9,0-1.4c0-0.8,0.1-1.6,0.1-2.5c0-17-7.9-32.1-19.4-42.7c-11.6-10.7-27-17.2-42.9-17.2c-4.3,0-8.6,0.5-12.8,1.5c-0.1,0-0.1,0-0.2,0c0,0,0,0-0.1,0c-21.1,4.4-39.6,20.1-46.4,41.6l0,0v0c0,0,0,0.1,0,0.1c-2,5.9-2.9,12-2.9,18c0,13.2,4.4,26,11.9,36.6c7.4,10.4,18,18.6,30.6,22.4C328.6,615.1,328.6,615.1,328.7,615.1z M989.8,461.3L989.8,461.3c0.1,2.2,0.2,4.4,0.2,6.5c0,23.8-7.6,46.7-20.4,66.1c-11.9,18.2-28.3,33.4-47.2,43.7c1.2,9.5,1.9,19,1.9,28.5c0,51.3-17.7,101.6-48.5,142v0h-0.1C818.9,823.9,731.6,868.5,643.4,891h0l-0.1,0.1c-47,11.4-95.6,17.3-144,17.3c-72.3,0-144.5-13-211.9-40.1l0-0.1h-0.1c-69.9-28.8-136.5-74.6-177.3-141.7c-22-35.8-34-77.8-34-120c0-9.5,0.6-19.1,1.9-28.6c-18.4-10.4-34.3-25-46.1-42.6C19,516.6,11,494.5,10,471.2v-0.1V471v-0.2c0-32.7,14.2-63.6,36.3-86.4c22-22.8,52.2-37.7,84.5-37.7c0.4,0,0.9,0,1.3,0c3.4-0.2,6.8-0.4,10.2-0.4c16.2,0,32.5,2.6,47.9,8.5l0.1,0.1l0.1,0c13.2,5.6,26.3,12.3,38,21.5c3.8-2,7.9-4.2,12.5-6c70.8-41.9,153-58.1,233.2-62.7c0.7-39.7,5.6-81.3,24.9-117.7c16.1-30.2,44.1-53.8,77.5-61.9l0.1-0.1l0.2,0c12.7-2.5,25.5-3.6,38.2-3.6c33.9,0,67.4,8,98.7,20.5c13.9-20.9,33.7-37.3,56.9-46.4l0.2-0.1l0.2-0.1c13.6-4.2,28-6.7,42.5-6.7c15.2,0,30.6,2.8,45,9.2v-0.1c0,0.1,0,0.1,0,0.1c0.1,0,0.2,0.1,0.3,0.1c20.6,7.9,38.1,22.6,50.5,40.9c12.4,18.3,19.7,40.3,19.7,62.9c0,4.2-0.2,8.3-0.7,12.5l0,0.1c0,0.1,0,0.2,0,0.2c-2.4,29.2-17.2,54.8-38.1,73.1C869.1,309,841.9,320,813.9,320c-4.5,0-9-0.3-13.5-0.9c-27.8-2.1-53.6-15.6-72.7-35.5c-19.1-19.9-31.4-46.6-31.4-75.4c0-1.4,0.1-2.8,0.2-4.2c-26.1-11.6-53.7-21.2-81.2-21.2c-4,0-8,0.2-11.9,0.6h0c-20.6,2-39.7,15-49,33.6v0v0.1c-14.1,27.4-16.9,59.5-17.3,91.3c78.9,5.1,158.3,24.1,227.9,64.1h0.1l1,0.6c1.3,0.8,3.8,2.1,6,3.3c4.8-3.9,9.8-7.9,15.6-11.3c21.1-14.1,46.1-21,71.1-21c11.1,0,22.2,1.4,33,4.2h0l0.4,0.1c0.2,0,0.3,0.1,0.4,0.1v0c25.5,6.5,48.5,21.1,65.9,40.8C975.9,409.1,987.6,434.1,989.8,461.3L989.8,461.3L989.8,461.3L989.8,461.3z M757.3,203.1c0,1.1,0,2.2,0.1,3.3v0.1v0.1c0.5,13.7,7,26.5,16.8,35.9c9.9,9.4,23,15.3,36.3,15.3h0.2h0.2c1,0.1,1.9,0.1,2.9,0.1c13.4,0,26.8-5.8,36.8-15.2c10-9.4,16.7-22.3,17.2-36.1l0-0.1v-0.1c0.1-1.1,0.1-2.1,0.1-3.1c0-14.2-6.7-27.8-17.1-37.9c-10.4-10-24.4-16.3-38.1-16.2c-4.4,0-8.8,0.6-13.2,1.9l-0.1,0l-0.1,0.1c-11.4,3-22,10-29.6,19.3C762,179.7,757.3,191.2,757.3,203.1z M174.8,414.6c-10.5-4.9-21.5-8.4-32.2-8.4c-1.8,0-3.6,0.1-5.4,0.3h-0.3l-0.3,0c-15.5,0.4-31.1,7.2-42.8,18C82,435.3,74.2,449.9,73.6,466v0.1l0,0.1c-0.1,1.3-0.1,2.6-0.1,3.8c0,9.9,3,19.5,8.2,28.2c3.8,6.5,8.8,12.4,14.5,17.5C114.2,476.2,142.5,442.5,174.8,414.6z M862.3,608.4c0-35.3-12.7-70.8-33.4-99.3c-41.1-57.2-104.9-94.6-171.3-115.4l-0.5-0.2c-12.7-3.9-25.6-7.4-38.6-10.3C579.8,374.4,540,370,500.3,370c-53.3,0-106.7,7.9-157.8,23.6c-66.4,21.1-130.4,58.1-171.4,115.5v0c-20.8,28.7-33,64.3-33,99.7c0,13,1.6,26.1,5.1,38.8l0,0c7.5,28.5,22.1,53.9,41,76.1c18.9,22.2,42.1,41.1,66.5,56.6c5.4,3.3,10.8,6.5,16.4,9.7c70.8,39.5,152.4,56.9,233.4,56.9c13.7,0,27.5-0.5,41.1-1.5c81.6-6.7,163.5-30.8,229.7-80l0-0.1c21.1-15.6,40.6-34.4,56-55.9c15.5-21.5,26.9-45.4,31.9-71.5v-0.1l0,0C861.3,628.2,862.3,618.3,862.3,608.4z M926.7,467.9c0-8.6-2-17.1-6.3-25.1l-0.1-0.1l0-0.1c-5.7-11.8-14.8-20.8-25.6-26.8c-10.9-6.1-23.6-9.2-36.3-9.2c-11.5,0-23,2.6-33.2,7.7c32.4,28.1,60.8,61.9,79.2,101.7c5.9-5.1,11-11.4,14.7-18.4C923.9,488.3,926.7,478,926.7,467.9z" fill="white"/></g><g/><g/><g/><g/><g/><g/><g/><g/><g/><g/><g/><g/><g/><g/><g/></g>
</svg>